<?xml version="1.0" encoding="utf-8"?>
<!-- Generator: Adobe Illustrator 27.5.0, SVG Export Plug-In . SVG Version: 6.00 Build 0)  -->
<svg version="1.1" xmlns="http://www.w3.org/2000/svg" xmlns:xlink="http://www.w3.org/1999/xlink" x="0px" y="0px"
	 viewBox="0 0 500 500" style="enable-background:new 0 0 500 500;" xml:space="preserve">
<g id="BACKGROUND">
	<rect id="XMLID_15_" style="fill:#1D71B8;" width="500" height="500"/>
</g>
<g id="OBJECTS">
	
		<text id="XMLID_303_" transform="matrix(1 0 0 1 97.5102 74.0195)" style="fill:#FFFFFF; font-family:'Bebas'; font-size:29.4791px;">Artificial   Intelligence</text>
	<g id="XMLID_78_">
		<defs>
			<rect id="XMLID_2_" width="500" height="500"/>
		</defs>
		<clipPath id="XMLID_00000071534702592774977210000015105337992597040539_">
			<use xlink:href="#XMLID_2_"  style="overflow:visible;"/>
		</clipPath>
		<g id="XMLID_446_" style="clip-path:url(#XMLID_00000071534702592774977210000015105337992597040539_);">
			<g id="XMLID_445_">
				<g id="XMLID_58_">
					<path id="XMLID_1_" style="fill:none;stroke:#FFFFFF;stroke-width:3;stroke-miterlimit:10;" d="M323.127,158.89h28.286
						c2.839,0,5.471-1.487,6.937-3.919l20.376-33.821c1.465-2.432,4.097-3.919,6.937-3.919h78.407c2.925,0,5.622-1.577,7.057-4.126
						l22-39.085"/>
					<path id="XMLID_62_" style="fill:none;stroke:#FFFFFF;stroke-width:3;stroke-miterlimit:10;" d="M341.001,232.939h56.443
						c2.839,0,5.471-1.487,6.937-3.919l20.376-33.821c1.465-2.432,4.097-3.919,6.937-3.919h78.407c2.925,0,5.623-1.577,7.057-4.126
						l22-39.085"/>
					<path id="XMLID_60_" style="fill:none;stroke:#FFFFFF;stroke-width:3;stroke-miterlimit:10;" d="M341.423,196.571h32.774
						c2.839,0,5.471-1.487,6.937-3.919l20.376-33.821c1.465-2.432,4.097-3.919,6.937-3.919h13.922"/>
					<path id="XMLID_61_" style="fill:none;stroke:#FFFFFF;stroke-width:3;stroke-miterlimit:10;" d="M352.5,214.982h32.774
						c2.839,0,5.471-1.487,6.937-3.919l20.377-33.821c1.465-2.432,4.097-3.919,6.937-3.919h13.922"/>
					<path id="XMLID_57_" style="fill:none;stroke:#FFFFFF;stroke-width:3;stroke-miterlimit:10;" d="M388.556,139.962
						c1.465-2.432,4.097-3.919,6.937-3.919H473.9c2.925,0,5.623-1.577,7.057-4.126l22-39.086"/>
					<path id="XMLID_16_" style="fill:none;stroke:#FFFFFF;stroke-width:3;stroke-miterlimit:10;" d="M332.957,177.701h28.286
						c2.839,0,5.471-1.487,6.937-3.919"/>
					<path id="XMLID_56_" style="fill:#FFFFFF;" d="M364.742,171.944c0,2.439,1.977,4.417,4.417,4.417s4.417-1.977,4.417-4.417
						c0-2.439-1.977-4.417-4.417-4.417S364.742,169.505,364.742,171.944z"/>
					<path id="XMLID_59_" style="fill:#FFFFFF;" d="M384.14,140.411c0,2.439,1.977,4.417,4.417,4.417
						c2.439,0,4.417-1.977,4.417-4.417c0-2.439-1.977-4.417-4.417-4.417C386.117,135.994,384.14,137.972,384.14,140.411z"/>
					<path id="XMLID_63_" style="fill:#FFFFFF;" d="M417.952,154.912c0,2.439,1.977,4.417,4.417,4.417
						c2.439,0,4.417-1.977,4.417-4.417c0-2.439-1.977-4.417-4.417-4.417C419.93,150.496,417.952,152.473,417.952,154.912z"/>
					<path id="XMLID_65_" style="fill:#FFFFFF;" d="M429.029,173.069c0,2.439,1.977,4.417,4.417,4.417
						c2.439,0,4.417-1.977,4.417-4.417c0-2.439-1.977-4.417-4.417-4.417C431.007,168.652,429.029,170.63,429.029,173.069z"/>
				</g>
				<g id="XMLID_332_">
					<path id="XMLID_342_" style="fill:none;stroke:#FFFFFF;stroke-width:3;stroke-miterlimit:10;" d="M327.547,307.013v28.286
						c0,2.839,1.487,5.471,3.919,6.937l33.821,20.376c2.432,1.465,3.919,4.097,3.919,6.937v78.407c0,2.925,1.577,5.623,4.126,7.057
						l39.085,22"/>
					<path id="XMLID_341_" style="fill:none;stroke:#FFFFFF;stroke-width:3;stroke-miterlimit:10;" d="M253.497,324.886v56.443
						c0,2.839,1.487,5.471,3.919,6.937l33.821,20.376c2.432,1.465,3.919,4.097,3.919,6.937v78.406c0,2.925,1.577,5.623,4.126,7.057
						l39.085,22"/>
					<path id="XMLID_340_" style="fill:none;stroke:#FFFFFF;stroke-width:3;stroke-miterlimit:10;" d="M289.865,325.308v32.774
						c0,2.839,1.487,5.471,3.919,6.937l33.821,20.376c2.432,1.465,3.919,4.097,3.919,6.937v13.922"/>
					<path id="XMLID_339_" style="fill:none;stroke:#FFFFFF;stroke-width:3;stroke-miterlimit:10;" d="M271.455,336.385v32.774
						c0,2.839,1.487,5.471,3.919,6.937l33.821,20.376c2.432,1.465,3.919,4.097,3.919,6.937v13.923"/>
					<path id="XMLID_338_" style="fill:none;stroke:#FFFFFF;stroke-width:3;stroke-miterlimit:10;" d="M346.475,372.441
						c2.432,1.465,3.919,4.097,3.919,6.937v78.407c0,2.925,1.577,5.623,4.126,7.057l39.086,22"/>
					<path id="XMLID_337_" style="fill:none;stroke:#FFFFFF;stroke-width:3;stroke-miterlimit:10;" d="M308.735,316.842v28.286
						c0,2.839,1.487,5.471,3.919,6.937"/>
					<path id="XMLID_336_" style="fill:#FFFFFF;" d="M314.493,348.627c-2.439,0-4.417,1.977-4.417,4.417
						c0,2.439,1.977,4.417,4.417,4.417c2.439,0,4.417-1.977,4.417-4.417C318.909,350.604,316.932,348.627,314.493,348.627z"/>
					<path id="XMLID_335_" style="fill:#FFFFFF;" d="M346.025,368.025c-2.439,0-4.417,1.977-4.417,4.417s1.977,4.417,4.417,4.417
						c2.439,0,4.417-1.977,4.417-4.417S348.465,368.025,346.025,368.025z"/>
					<path id="XMLID_334_" style="fill:#FFFFFF;" d="M331.524,401.837c-2.439,0-4.417,1.978-4.417,4.417
						c0,2.439,1.977,4.417,4.417,4.417c2.439,0,4.417-1.977,4.417-4.417C335.941,403.815,333.964,401.837,331.524,401.837z"/>
					<path id="XMLID_333_" style="fill:#FFFFFF;" d="M313.368,412.914c-2.439,0-4.417,1.977-4.417,4.417
						c0,2.439,1.977,4.417,4.417,4.417c2.439,0,4.417-1.977,4.417-4.417C317.784,414.892,315.807,412.914,313.368,412.914z"/>
				</g>
				<g id="XMLID_343_">
					<path id="XMLID_353_" style="fill:none;stroke:#FFFFFF;stroke-width:3;stroke-miterlimit:10;" d="M172.453,307.013v28.286
						c0,2.839-1.487,5.471-3.919,6.937l-33.821,20.376c-2.432,1.465-3.919,4.097-3.919,6.937v78.407
						c0,2.925-1.577,5.623-4.126,7.057l-39.085,22"/>
					<path id="XMLID_352_" style="fill:none;stroke:#FFFFFF;stroke-width:3;stroke-miterlimit:10;" d="M246.503,324.886v56.443
						c0,2.839-1.487,5.471-3.919,6.937l-33.821,20.376c-2.432,1.465-3.919,4.097-3.919,6.937v78.406
						c0,2.925-1.577,5.623-4.126,7.057l-39.085,22"/>
					<path id="XMLID_351_" style="fill:none;stroke:#FFFFFF;stroke-width:3;stroke-miterlimit:10;" d="M210.135,325.308v32.774
						c0,2.839-1.487,5.471-3.919,6.937l-33.821,20.376c-2.432,1.465-3.919,4.097-3.919,6.937v13.922"/>
					<path id="XMLID_350_" style="fill:none;stroke:#FFFFFF;stroke-width:3;stroke-miterlimit:10;" d="M228.545,336.385v32.774
						c0,2.839-1.487,5.471-3.919,6.937l-33.821,20.376c-2.432,1.465-3.919,4.097-3.919,6.937v13.923"/>
					<path id="XMLID_349_" style="fill:none;stroke:#FFFFFF;stroke-width:3;stroke-miterlimit:10;" d="M153.525,372.441
						c-2.432,1.465-3.919,4.097-3.919,6.937v78.407c0,2.925-1.577,5.623-4.126,7.057l-39.085,22"/>
					<path id="XMLID_348_" style="fill:none;stroke:#FFFFFF;stroke-width:3;stroke-miterlimit:10;" d="M191.265,316.842v28.286
						c0,2.839-1.487,5.471-3.919,6.937"/>
					<path id="XMLID_347_" style="fill:#FFFFFF;" d="M185.507,348.627c2.439,0,4.417,1.977,4.417,4.417
						c0,2.439-1.977,4.417-4.417,4.417c-2.439,0-4.417-1.977-4.417-4.417C181.091,350.604,183.068,348.627,185.507,348.627z"/>
					<path id="XMLID_346_" style="fill:#FFFFFF;" d="M153.975,368.025c2.439,0,4.417,1.977,4.417,4.417s-1.977,4.417-4.417,4.417
						c-2.439,0-4.417-1.977-4.417-4.417S151.535,368.025,153.975,368.025z"/>
					<path id="XMLID_345_" style="fill:#FFFFFF;" d="M168.476,401.837c2.439,0,4.417,1.978,4.417,4.417
						c0,2.439-1.977,4.417-4.417,4.417c-2.439,0-4.417-1.977-4.417-4.417C164.059,403.815,166.036,401.837,168.476,401.837z"/>
					<path id="XMLID_344_" style="fill:#FFFFFF;" d="M186.632,412.914c2.439,0,4.417,1.977,4.417,4.417
						c0,2.439-1.977,4.417-4.417,4.417c-2.439,0-4.417-1.977-4.417-4.417C182.216,414.892,184.193,412.914,186.632,412.914z"/>
				</g>
				<g id="XMLID_67_">
					<path id="XMLID_77_" style="fill:none;stroke:#FFFFFF;stroke-width:3;stroke-miterlimit:10;" d="M176.873,158.89h-28.286
						c-2.839,0-5.471-1.487-6.937-3.919l-20.376-33.821c-1.465-2.432-4.097-3.919-6.937-3.919H35.93
						c-2.925,0-5.622-1.577-7.057-4.126l-22-39.085"/>
					<path id="XMLID_76_" style="fill:none;stroke:#FFFFFF;stroke-width:3;stroke-miterlimit:10;" d="M158.999,232.939h-56.443
						c-2.839,0-5.471-1.487-6.937-3.919L75.243,195.2c-1.465-2.432-4.097-3.919-6.937-3.919h-78.407
						c-2.925,0-5.623-1.577-7.057-4.126l-22-39.085"/>
					<path id="XMLID_75_" style="fill:none;stroke:#FFFFFF;stroke-width:3;stroke-miterlimit:10;" d="M158.577,196.571h-32.774
						c-2.839,0-5.471-1.487-6.937-3.919L98.49,158.831c-1.465-2.432-4.097-3.919-6.937-3.919H77.631"/>
					<path id="XMLID_74_" style="fill:none;stroke:#FFFFFF;stroke-width:3;stroke-miterlimit:10;" d="M147.5,214.982h-32.774
						c-2.839,0-5.471-1.487-6.937-3.919l-20.376-33.821c-1.465-2.432-4.097-3.919-6.937-3.919H66.554"/>
					<path id="XMLID_73_" style="fill:none;stroke:#FFFFFF;stroke-width:3;stroke-miterlimit:10;" d="M111.444,139.962
						c-1.465-2.432-4.097-3.919-6.937-3.919H26.1c-2.925,0-5.623-1.577-7.057-4.126l-22-39.086"/>
					<path id="XMLID_72_" style="fill:none;stroke:#FFFFFF;stroke-width:3;stroke-miterlimit:10;" d="M167.043,177.701h-28.286
						c-2.839,0-5.471-1.487-6.937-3.919"/>
					<path id="XMLID_71_" style="fill:#FFFFFF;" d="M135.258,171.944c0,2.439-1.977,4.417-4.417,4.417
						c-2.439,0-4.417-1.977-4.417-4.417c0-2.439,1.977-4.417,4.417-4.417C133.281,167.527,135.258,169.505,135.258,171.944z"/>
					<path id="XMLID_70_" style="fill:#FFFFFF;" d="M115.86,140.411c0,2.439-1.977,4.417-4.417,4.417
						c-2.439,0-4.417-1.977-4.417-4.417c0-2.439,1.977-4.417,4.417-4.417C113.883,135.994,115.86,137.972,115.86,140.411z"/>
					<path id="XMLID_69_" style="fill:#FFFFFF;" d="M82.048,154.912c0,2.439-1.977,4.417-4.417,4.417
						c-2.439,0-4.417-1.977-4.417-4.417c0-2.439,1.977-4.417,4.417-4.417C80.07,150.496,82.048,152.473,82.048,154.912z"/>
					<path id="XMLID_68_" style="fill:#FFFFFF;" d="M70.97,173.069c0,2.439-1.977,4.417-4.417,4.417
						c-2.439,0-4.417-1.977-4.417-4.417c0-2.439,1.977-4.417,4.417-4.417C68.993,168.652,70.97,170.63,70.97,173.069z"/>
				</g>
				<g id="XMLID_10_">
					<g id="XMLID_66_">
						<path id="XMLID_12_" style="fill:#FFCCCC;" d="M248.387,127.079c0,0-26.961-15.643-47.332,3.498
							c0,0-28.342,1.261-31.48,41.579c0,0-32.588,27.869-16.181,65.631c0,0-18.411,26.576,7.164,40.257
							c0,0-14.79,46.862,38.266,63.771c0,0,21.439,28.09,49.564,5.434V127.079z"/>
						<path id="XMLID_3_" style="fill:none;stroke:#1D1D1B;stroke-width:3;stroke-linecap:round;stroke-miterlimit:10;" d="
							M248.387,127.079c0,0-25.162-21.426-46.072,6.025"/>
						<path id="XMLID_357_" style="fill:#FFA9A9;" d="M183.178,272.15c0,0-24.271,14.086-20.319,34.863
							c0,0-5.382-16.659-2.302-28.968C160.557,278.045,171.392,279.361,183.178,272.15z"/>
						<path id="XMLID_355_" style="fill:#FFA9A9;" d="M174.664,205.965c0,0-10.027,20.355-24.527,13.855c0,0,2.25,16.375,4.5,18.75
							c0,0,3.527-2.125,7.764-5.875c4.236-3.75,8.736-10.875,10.111-15.75S174.664,205.965,174.664,205.965z"/>
						<path id="XMLID_4_" style="fill:none;stroke:#1D1D1B;stroke-width:3;stroke-linecap:round;stroke-miterlimit:10;" d="
							M207.804,126.112c0,0-40.878,9.146-38.093,49.949"/>
						<path id="XMLID_5_" style="fill:none;stroke:#1D1D1B;stroke-width:3;stroke-linecap:round;stroke-miterlimit:10;" d="
							M169.575,169.703c0,0-32.997,25.887-15.773,70.355"/>
						<path id="XMLID_6_" style="fill:none;stroke:#1D1D1B;stroke-width:3;stroke-linecap:round;stroke-miterlimit:10;" d="
							M176.799,187.873c0,0,3.898,34.376-18.074,48.198c-21.973,13.821-7.797,46.426,9.171,41.464
							c17.531-5.126,26.269-14.53,38.673-35.085c12.404-20.555,32.959-9.149,32.959-9.149"/>
						<path id="XMLID_7_" style="fill:none;stroke:#1D1D1B;stroke-width:3;stroke-linecap:round;stroke-miterlimit:10;" d="
							M159.199,278.045c0,0-8.626,79.23,67.924,60.802"/>
						<path id="XMLID_9_" style="fill:none;stroke:#1D1D1B;stroke-width:3;stroke-linecap:round;stroke-miterlimit:10;" d="
							M225.351,156.16c0,0-34.512,13.039-29.178,53.686c5.333,40.647,51.269,14.885,36.857-10.868"/>
						<path id="XMLID_11_" style="fill:none;stroke:#1D1D1B;stroke-width:3;stroke-linecap:round;stroke-miterlimit:10;" d="
							M248.268,168.666c0,0-31.54-5.6-31.54,36.455"/>
						<path id="XMLID_46_" style="fill:none;stroke:#1D1D1B;stroke-width:3;stroke-linecap:round;stroke-miterlimit:10;" d="
							M214.01,283.884c0.233,1.418,0.527,2.904,0.887,4.46c8.683,37.566-31.719,45.363-31.719,14.885"/>
						<path id="XMLID_13_" style="fill:none;stroke:#1D1D1B;stroke-width:3;stroke-linecap:round;stroke-miterlimit:10;" d="
							M184.595,224.731c0,0,4.607,24.985-20.201,30.655"/>
						<path id="XMLID_14_" style="fill:none;stroke:#1D1D1B;stroke-width:3;stroke-linecap:round;stroke-miterlimit:10;" d="
							M233.03,293.956c0,0,11.813,27.17-18.429,30.951"/>
						<path id="XMLID_27_" style="fill:#1D1D1B;" d="M234.097,155.081c0,3.007-2.437,5.444-5.444,5.444
							c-3.006,0-5.444-2.437-5.444-5.444c0-3.006,2.437-5.444,5.444-5.444C231.66,149.637,234.097,152.074,234.097,155.081z"/>
						<circle id="XMLID_29_" style="fill:#1D1D1B;" cx="216.727" cy="206.435" r="5.444"/>
						<path id="XMLID_31_" style="fill:#1D1D1B;" d="M238.01,198.051c0,3.007-2.437,5.444-5.444,5.444
							c-3.006,0-5.444-2.437-5.444-5.444c0-3.006,2.437-5.444,5.444-5.444C235.573,192.607,238.01,195.044,238.01,198.051z"/>
						<circle id="XMLID_33_" style="fill:#1D1D1B;" cx="162.859" cy="255.386" r="5.444"/>
						<circle id="XMLID_34_" style="fill:#1D1D1B;" cx="184.445" cy="223.546" r="5.444"/>
						<path id="XMLID_35_" style="fill:#1D1D1B;" d="M182.082,186.16c0,3.007-2.437,5.444-5.444,5.444
							c-3.007,0-5.444-2.437-5.444-5.444c0-3.006,2.437-5.444,5.444-5.444C179.645,180.716,182.082,183.153,182.082,186.16z"/>
						<circle id="XMLID_36_" style="fill:#1D1D1B;" cx="235.816" cy="255.386" r="5.444"/>
						<path id="XMLID_37_" style="fill:#1D1D1B;" d="M188.622,302.328c0,3.006-2.437,5.444-5.444,5.444
							c-3.006,0-5.444-2.437-5.444-5.444c0-3.007,2.437-5.444,5.444-5.444C186.184,296.884,188.622,299.321,188.622,302.328z"/>
						<circle id="XMLID_38_" style="fill:#1D1D1B;" cx="234.097" cy="293.956" r="5.444"/>
						<circle id="XMLID_26_" style="fill:#1D1D1B;" cx="213.333" cy="281.607" r="5.444"/>
						<circle id="XMLID_39_" style="fill:#1D1D1B;" cx="214.601" cy="324.907" r="5.444"/>
						<circle id="XMLID_40_" style="fill:#1D1D1B;" cx="228.654" cy="336.373" r="5.444"/>
						<g id="XMLID_17_">
							<path id="XMLID_55_" style="fill:#B3C0FF;" d="M248.387,127.079c0,0,26.961-15.643,47.332,3.498
								c0,0,28.342,1.261,31.48,41.579c0,0,32.588,27.869,16.182,65.631c0,0,18.411,26.576-7.164,40.257
								c0,0,14.79,46.862-38.266,63.771c0,0-21.439,28.09-49.564,5.434V127.079z"/>
							<path id="XMLID_354_" style="fill:#88ACFC;" d="M314.294,272.15c0,0,24.271,14.086,20.319,34.863
								c0,0,5.382-16.659,2.302-28.968C336.915,278.045,326.081,279.361,314.294,272.15z"/>
							<path id="XMLID_356_" style="fill:#88ACFC;" d="M322.11,204.881c0,0,10.027,20.355,24.527,13.855c0,0-2.25,16.375-4.5,18.75
								c0,0-3.527-2.125-7.764-5.875c-4.236-3.75-8.736-10.875-10.111-15.75S322.11,204.881,322.11,204.881z"/>
							<g id="XMLID_42_">
								<g id="XMLID_43_">
									<path id="XMLID_54_" style="fill:none;stroke:#1D1D1B;stroke-width:3;stroke-linecap:round;stroke-miterlimit:10;" d="
										M248.387,127.079c0,0,25.162-21.426,46.072,6.025"/>
									<path id="XMLID_53_" style="fill:none;stroke:#1D1D1B;stroke-width:3;stroke-linecap:round;stroke-miterlimit:10;" d="
										M288.97,126.112c0,0,40.878,9.146,38.093,49.949"/>
									<path id="XMLID_52_" style="fill:none;stroke:#1D1D1B;stroke-width:3;stroke-linecap:round;stroke-miterlimit:10;" d="
										M327.199,169.703c0,0,32.997,25.887,15.773,70.355"/>
									<path id="XMLID_51_" style="fill:none;stroke:#1D1D1B;stroke-width:3;stroke-linecap:round;stroke-miterlimit:10;" d="
										M319.975,187.873c0,0-3.898,34.376,18.074,48.198c21.973,13.821,7.797,46.426-9.171,41.464
										c-17.531-5.126-26.269-14.53-38.673-35.085c-12.404-20.555-32.959-9.149-32.959-9.149"/>
									<path id="XMLID_50_" style="fill:none;stroke:#1D1D1B;stroke-width:3;stroke-linecap:round;stroke-miterlimit:10;" d="
										M337.575,278.045c0,0,8.625,79.23-67.924,60.802"/>
									<path id="XMLID_49_" style="fill:none;stroke:#1D1D1B;stroke-width:3;stroke-linecap:round;stroke-miterlimit:10;" d="
										M301.161,341.626c0,0-27.378,25.525-52.531,5.521"/>
									<path id="XMLID_48_" style="fill:none;stroke:#1D1D1B;stroke-width:3;stroke-linecap:round;stroke-miterlimit:10;" d="
										M271.423,156.16c0,0,34.512,13.039,29.178,53.686c-5.333,40.647-51.269,14.885-36.857-10.868"/>
									<path id="XMLID_47_" style="fill:none;stroke:#1D1D1B;stroke-width:3;stroke-linecap:round;stroke-miterlimit:10;" d="
										M248.268,168.666c0,0,31.778-5.6,31.778,36.455"/>
									<path id="XMLID_331_" style="fill:none;stroke:#1D1D1B;stroke-width:3;stroke-linecap:round;stroke-miterlimit:10;" d="
										M282.659,284.503c-0.215,1.23-0.474,2.51-0.782,3.841c-8.683,37.566,31.719,45.363,31.719,14.885"/>
									<path id="XMLID_45_" style="fill:none;stroke:#1D1D1B;stroke-width:3;stroke-linecap:round;stroke-miterlimit:10;" d="
										M312.178,224.731c0,0-4.607,24.985,20.201,30.655"/>
									<path id="XMLID_44_" style="fill:none;stroke:#1D1D1B;stroke-width:3;stroke-linecap:round;stroke-miterlimit:10;" d="
										M263.744,293.956c0,0-11.813,27.17,18.429,30.951"/>
								</g>
							</g>
							<path id="XMLID_41_" style="fill:#1D1D1B;" d="M262.677,155.081c0,3.007,2.437,5.444,5.444,5.444
								c3.006,0,5.444-2.437,5.444-5.444c0-3.006-2.437-5.444-5.444-5.444C265.114,149.637,262.677,152.074,262.677,155.081z"/>
							<path id="XMLID_30_" style="fill:#1D1D1B;" d="M274.603,206.435c0,3.007,2.437,5.444,5.444,5.444
								c3.007,0,5.444-2.437,5.444-5.444c0-3.006-2.437-5.444-5.444-5.444C277.04,200.992,274.603,203.429,274.603,206.435z"/>
							<path id="XMLID_28_" style="fill:#1D1D1B;" d="M258.764,198.051c0,3.007,2.437,5.444,5.444,5.444
								c3.006,0,5.444-2.437,5.444-5.444c0-3.006-2.437-5.444-5.444-5.444C261.201,192.607,258.764,195.044,258.764,198.051z"/>
							<path id="XMLID_25_" style="fill:#1D1D1B;" d="M328.471,255.386c0,3.006,2.437,5.444,5.444,5.444
								c3.007,0,5.444-2.437,5.444-5.444c0-3.006-2.437-5.444-5.444-5.444C330.908,249.942,328.471,252.38,328.471,255.386z"/>
							<circle id="XMLID_24_" style="fill:#1D1D1B;" cx="312.329" cy="223.546" r="5.444"/>
							<circle id="XMLID_23_" style="fill:#1D1D1B;" cx="320.135" cy="186.16" r="5.444"/>
							<circle id="XMLID_22_" style="fill:#1D1D1B;" cx="260.958" cy="255.386" r="5.444"/>
							<path id="XMLID_21_" style="fill:#1D1D1B;" d="M308.152,302.328c0,3.006,2.437,5.444,5.444,5.444
								c3.006,0,5.444-2.437,5.444-5.444c0-3.007-2.437-5.444-5.444-5.444C310.589,296.884,308.152,299.321,308.152,302.328z"/>
							<path id="XMLID_20_" style="fill:#1D1D1B;" d="M257.233,293.956c0,3.006,2.437,5.444,5.444,5.444
								c3.007,0,5.444-2.437,5.444-5.444c0-3.007-2.437-5.444-5.444-5.444C259.67,288.513,257.233,290.95,257.233,293.956z"/>
							<circle id="XMLID_19_" style="fill:#1D1D1B;" cx="282.173" cy="324.907" r="5.444"/>
							<circle id="XMLID_18_" style="fill:#1D1D1B;" cx="268.12" cy="336.373" r="5.444"/>
						</g>
						<path id="XMLID_8_" style="fill:none;stroke:#1D1D1B;stroke-width:3;stroke-linecap:round;stroke-miterlimit:10;" d="
							M195.612,341.626c0,0,27.622,25.628,52.775,5.624"/>
						<path id="XMLID_32_" style="fill:#1D1D1B;" d="M289.132,281.607c0,3.007-2.437,5.444-5.444,5.444
							c-3.006,0-5.444-2.437-5.444-5.444c0-3.006,2.437-5.444,5.444-5.444C286.695,276.163,289.132,278.6,289.132,281.607z"/>
					</g>
					<g id="XMLID_330_">
						<path id="XMLID_304_" style="fill:#1D1D1B;" d="M268.95,281.239H227.42c-1.99,0-3.602-1.613-3.602-3.602v-43.382
							c0-1.99,1.613-3.602,3.602-3.602h41.529c1.99,0,3.602,1.613,3.602,3.602v43.382
							C272.552,279.626,270.939,281.239,268.95,281.239z"/>
						<g id="XMLID_306_">
							<path id="XMLID_305_" style="fill:#1D1D1B;" d="M234.659,236.464h-0.397c-0.623,0-1.132-0.509-1.132-1.132v-9.359
								c0-0.623,0.509-1.132,1.132-1.132h0.397c0.622,0,1.132,0.509,1.132,1.132v9.359
								C235.791,235.954,235.282,236.464,234.659,236.464z"/>
							<path id="XMLID_307_" style="fill:#1D1D1B;" d="M241.521,236.464h-0.397c-0.623,0-1.132-0.509-1.132-1.132v-9.359
								c0-0.623,0.509-1.132,1.132-1.132h0.397c0.622,0,1.132,0.509,1.132,1.132v9.359
								C242.653,235.954,242.144,236.464,241.521,236.464z"/>
							<path id="XMLID_308_" style="fill:#1D1D1B;" d="M248.383,236.464h-0.397c-0.623,0-1.132-0.509-1.132-1.132v-9.359
								c0-0.623,0.509-1.132,1.132-1.132h0.397c0.622,0,1.132,0.509,1.132,1.132v9.359
								C249.515,235.954,249.006,236.464,248.383,236.464z"/>
							<path id="XMLID_309_" style="fill:#1D1D1B;" d="M255.245,236.464h-0.397c-0.623,0-1.132-0.509-1.132-1.132v-9.359
								c0-0.623,0.509-1.132,1.132-1.132h0.397c0.622,0,1.132,0.509,1.132,1.132v9.359
								C256.377,235.954,255.868,236.464,255.245,236.464z"/>
							<path id="XMLID_310_" style="fill:#1D1D1B;" d="M262.107,236.464h-0.397c-0.623,0-1.132-0.509-1.132-1.132v-9.359
								c0-0.623,0.509-1.132,1.132-1.132h0.397c0.623,0,1.132,0.509,1.132,1.132v9.359
								C263.239,235.954,262.73,236.464,262.107,236.464z"/>
						</g>
						<g id="XMLID_312_">
							<path id="XMLID_317_" style="fill:#1D1D1B;" d="M234.659,287.05h-0.397c-0.623,0-1.132-0.509-1.132-1.132v-9.359
								c0-0.623,0.509-1.132,1.132-1.132h0.397c0.622,0,1.132,0.509,1.132,1.132v9.359
								C235.791,286.541,235.282,287.05,234.659,287.05z"/>
							<path id="XMLID_316_" style="fill:#1D1D1B;" d="M241.521,287.05h-0.397c-0.623,0-1.132-0.509-1.132-1.132v-9.359
								c0-0.623,0.509-1.132,1.132-1.132h0.397c0.622,0,1.132,0.509,1.132,1.132v9.359
								C242.653,286.541,242.144,287.05,241.521,287.05z"/>
							<path id="XMLID_315_" style="fill:#1D1D1B;" d="M248.383,287.05h-0.397c-0.623,0-1.132-0.509-1.132-1.132v-9.359
								c0-0.623,0.509-1.132,1.132-1.132h0.397c0.622,0,1.132,0.509,1.132,1.132v9.359
								C249.515,286.541,249.006,287.05,248.383,287.05z"/>
							<path id="XMLID_314_" style="fill:#1D1D1B;" d="M255.245,287.05h-0.397c-0.623,0-1.132-0.509-1.132-1.132v-9.359
								c0-0.623,0.509-1.132,1.132-1.132h0.397c0.622,0,1.132,0.509,1.132,1.132v9.359
								C256.377,286.541,255.868,287.05,255.245,287.05z"/>
							<path id="XMLID_313_" style="fill:#1D1D1B;" d="M262.107,287.05h-0.397c-0.623,0-1.132-0.509-1.132-1.132v-9.359
								c0-0.623,0.509-1.132,1.132-1.132h0.397c0.623,0,1.132,0.509,1.132,1.132v9.359
								C263.239,286.541,262.73,287.05,262.107,287.05z"/>
						</g>
						<g id="XMLID_324_">
							<path id="XMLID_329_" style="fill:#1D1D1B;" d="M230.034,269.471v0.397c0,0.622-0.509,1.132-1.132,1.132h-9.359
								c-0.622,0-1.132-0.509-1.132-1.132v-0.397c0-0.623,0.509-1.132,1.132-1.132h9.359
								C229.524,268.339,230.034,268.848,230.034,269.471z"/>
							<path id="XMLID_328_" style="fill:#1D1D1B;" d="M230.034,262.609v0.397c0,0.622-0.509,1.132-1.132,1.132h-9.359
								c-0.622,0-1.132-0.509-1.132-1.132v-0.397c0-0.623,0.509-1.132,1.132-1.132h9.359
								C229.524,261.477,230.034,261.986,230.034,262.609z"/>
							<path id="XMLID_327_" style="fill:#1D1D1B;" d="M230.034,255.747v0.397c0,0.622-0.509,1.132-1.132,1.132h-9.359
								c-0.622,0-1.132-0.509-1.132-1.132v-0.397c0-0.623,0.509-1.132,1.132-1.132h9.359
								C229.524,254.615,230.034,255.124,230.034,255.747z"/>
							<path id="XMLID_326_" style="fill:#1D1D1B;" d="M230.034,248.885v0.397c0,0.622-0.509,1.132-1.132,1.132h-9.359
								c-0.622,0-1.132-0.509-1.132-1.132v-0.397c0-0.623,0.509-1.132,1.132-1.132h9.359
								C229.524,247.753,230.034,248.262,230.034,248.885z"/>
							<path id="XMLID_325_" style="fill:#1D1D1B;" d="M230.034,242.023v0.397c0,0.623-0.509,1.132-1.132,1.132h-9.359
								c-0.622,0-1.132-0.509-1.132-1.132v-0.397c0-0.623,0.509-1.132,1.132-1.132h9.359
								C229.524,240.891,230.034,241.4,230.034,242.023z"/>
						</g>
						<g id="XMLID_318_">
							<path id="XMLID_323_" style="fill:#1D1D1B;" d="M278.364,269.471v0.397c0,0.622-0.509,1.132-1.132,1.132h-9.359
								c-0.622,0-1.132-0.509-1.132-1.132v-0.397c0-0.623,0.509-1.132,1.132-1.132h9.359
								C277.854,268.339,278.364,268.848,278.364,269.471z"/>
							<path id="XMLID_322_" style="fill:#1D1D1B;" d="M278.364,262.609v0.397c0,0.622-0.509,1.132-1.132,1.132h-9.359
								c-0.622,0-1.132-0.509-1.132-1.132v-0.397c0-0.623,0.509-1.132,1.132-1.132h9.359
								C277.854,261.477,278.364,261.986,278.364,262.609z"/>
							<path id="XMLID_321_" style="fill:#1D1D1B;" d="M278.364,255.747v0.397c0,0.622-0.509,1.132-1.132,1.132h-9.359
								c-0.622,0-1.132-0.509-1.132-1.132v-0.397c0-0.623,0.509-1.132,1.132-1.132h9.359
								C277.854,254.615,278.364,255.124,278.364,255.747z"/>
							<path id="XMLID_320_" style="fill:#1D1D1B;" d="M278.364,248.885v0.397c0,0.622-0.509,1.132-1.132,1.132h-9.359
								c-0.622,0-1.132-0.509-1.132-1.132v-0.397c0-0.623,0.509-1.132,1.132-1.132h9.359
								C277.854,247.753,278.364,248.262,278.364,248.885z"/>
							<path id="XMLID_319_" style="fill:#1D1D1B;" d="M278.364,242.023v0.397c0,0.623-0.509,1.132-1.132,1.132h-9.359
								c-0.622,0-1.132-0.509-1.132-1.132v-0.397c0-0.623,0.509-1.132,1.132-1.132h9.359
								C277.854,240.891,278.364,241.4,278.364,242.023z"/>
						</g>
						
							<text id="XMLID_311_" transform="matrix(1 0 0 1 232.7737 269.215)" style="fill:#FFFFFF; font-family:'Bebas'; font-size:33.7122px;">ai</text>
					</g>
				</g>
			</g>
			<g id="XMLID_383_">
				<g id="XMLID_359_">
					<g id="XMLID_358_">
						<circle id="XMLID_543_" style="fill:#88ACFC;" cx="397.038" cy="286.695" r="13.052"/>
					</g>
					<g id="XMLID_365_">
						<path id="XMLID_405_" style="fill:#88ACFC;" d="M469.22,451.305c-7.899,0-14.326-6.427-14.326-14.326
							c0-7.899,6.427-14.326,14.326-14.326s14.326,6.427,14.326,14.326C483.546,444.878,477.119,451.305,469.22,451.305z
							 M469.22,425.201c-6.495,0-11.779,5.283-11.779,11.779c0,6.495,5.284,11.779,11.779,11.779
							c6.495,0,11.779-5.284,11.779-11.779C480.998,430.484,475.715,425.201,469.22,425.201z"/>
					</g>
					<g id="XMLID_362_">
						
							<ellipse id="XMLID_537_" transform="matrix(0.1608 -0.987 0.987 0.1608 38.2677 750.7982)" style="fill:#88ACFC;" cx="460.659" cy="352.895" rx="13.052" ry="13.052"/>
					</g>
					<g id="XMLID_364_">
						<circle id="XMLID_535_" style="fill:#88ACFC;" cx="473.711" cy="246.055" r="13.052"/>
					</g>
					<g id="XMLID_363_">
						<path id="XMLID_402_" style="fill:#88ACFC;" d="M427.84,430.68c-18.798,0-34.092-15.294-34.092-34.092
							s15.294-34.092,34.092-34.092c18.798,0,34.092,15.294,34.092,34.092S446.639,430.68,427.84,430.68z M427.84,365.043
							c-17.394,0-31.545,14.151-31.545,31.545c0,17.394,14.151,31.545,31.545,31.545c17.394,0,31.545-14.151,31.545-31.545
							C459.385,379.194,445.234,365.043,427.84,365.043z"/>
					</g>
					<g id="XMLID_361_">
						<path id="XMLID_399_" style="fill:#88ACFC;" d="M447.607,319.894c-14.721,0-26.697-11.976-26.697-26.697
							c0-14.72,11.976-26.696,26.697-26.696c14.72,0,26.696,11.976,26.696,26.696C474.303,307.918,462.327,319.894,447.607,319.894z
							 M447.607,269.049c-13.316,0-24.149,10.833-24.149,24.148c0,13.316,10.833,24.149,24.149,24.149
							c13.315,0,24.148-10.833,24.148-24.149C471.755,279.882,460.922,269.049,447.607,269.049z"/>
					</g>
					<g id="XMLID_360_">
						<circle id="XMLID_525_" style="fill:#88ACFC;" cx="413.733" cy="335.615" r="21.317"/>
					</g>
					<g id="XMLID_389_">
						<path id="XMLID_398_" style="fill:#88ACFC;" d="M446.293,384.069h-36.516c-0.703,0-1.274-0.571-1.274-1.274
							c0-0.703,0.57-1.274,1.274-1.274h36.516c0.703,0,1.274,0.57,1.274,1.274C447.567,383.499,446.996,384.069,446.293,384.069z"/>
					</g>
					<g id="XMLID_390_">
						<path id="XMLID_397_" style="fill:#88ACFC;" d="M446.293,389.991h-36.516c-0.703,0-1.274-0.57-1.274-1.274
							c0-0.703,0.57-1.274,1.274-1.274h36.516c0.703,0,1.274,0.57,1.274,1.274C447.567,389.42,446.996,389.991,446.293,389.991z"/>
					</g>
					<g id="XMLID_391_">
						<path id="XMLID_396_" style="fill:#88ACFC;" d="M446.293,395.912h-36.516c-0.703,0-1.274-0.57-1.274-1.274
							c0-0.703,0.57-1.274,1.274-1.274h36.516c0.703,0,1.274,0.571,1.274,1.274C447.567,395.341,446.996,395.912,446.293,395.912z"
							/>
					</g>
					<g id="XMLID_392_">
						<path id="XMLID_395_" style="fill:#88ACFC;" d="M446.293,401.834h-36.516c-0.703,0-1.274-0.57-1.274-1.274
							c0-0.703,0.57-1.274,1.274-1.274h36.516c0.703,0,1.274,0.571,1.274,1.274C447.567,401.263,446.996,401.834,446.293,401.834z"
							/>
					</g>
					<g id="XMLID_393_">
						<path id="XMLID_385_" style="fill:#88ACFC;" d="M446.293,407.755h-36.516c-0.703,0-1.274-0.571-1.274-1.274
							c0-0.703,0.57-1.274,1.274-1.274h36.516c0.703,0,1.274,0.57,1.274,1.274C447.567,407.184,446.996,407.755,446.293,407.755z"/>
					</g>
					<g id="XMLID_394_">
						<path id="XMLID_384_" style="fill:#88ACFC;" d="M434.192,413.874h-24.414c-0.703,0-1.274-0.571-1.274-1.274
							c0-0.703,0.57-1.274,1.274-1.274h24.414c0.703,0,1.274,0.57,1.274,1.274C435.466,413.304,434.895,413.874,434.192,413.874z"/>
					</g>
				</g>
				<g id="XMLID_375_">
					<g id="XMLID_366_">
						<path id="XMLID_422_" style="fill:#88ACFC;" d="M447.607,308.259c-8.305,0-15.063-6.757-15.063-15.063
							s6.757-15.063,15.063-15.063s15.062,6.757,15.062,15.063S455.912,308.259,447.607,308.259z M447.607,284.079
							c-5.028,0-9.118,4.09-9.118,9.118c0,5.028,4.09,9.118,9.118,9.118c5.027,0,9.117-4.09,9.117-9.118
							C456.724,288.169,452.634,284.079,447.607,284.079z"/>
					</g>
					<g id="XMLID_376_">
						<path id="XMLID_408_" style="fill:#88ACFC;" d="M447.607,310.707c-0.542,0-1.087-0.025-1.622-0.074l0.234-2.538
							c1.053,0.098,2.146,0.084,3.209-0.046l0.305,2.529C449.03,310.664,448.314,310.707,447.607,310.707z M441.416,309.581
							c-1.168-0.442-2.295-1.013-3.347-1.698l1.388-2.136c0.9,0.586,1.862,1.073,2.859,1.45L441.416,309.581z M454.268,309.395
							l-0.97-2.355c0.988-0.406,1.935-0.922,2.815-1.532l1.451,2.095C456.533,308.316,455.424,308.919,454.268,309.395z
							 M434.517,304.828c-0.832-0.935-1.565-1.963-2.179-3.053l2.219-1.251c0.525,0.932,1.152,1.811,1.864,2.611L434.517,304.828z
							 M461.025,304.448l-1.952-1.637c0.69-0.823,1.291-1.719,1.787-2.663l2.256,1.184
							C462.536,302.437,461.832,303.485,461.025,304.448z M430.608,297.419c-0.3-1.212-0.47-2.462-0.505-3.716l2.546-0.071
							c0.031,1.072,0.176,2.14,0.432,3.175L430.608,297.419z M464.719,296.925l-2.49-0.539c0.226-1.042,0.34-2.115,0.34-3.19
							l2.548-0.066v0.066C465.117,294.453,464.984,295.707,464.719,296.925z M433.067,289.647l-2.476-0.602
							c0.296-1.217,0.727-2.406,1.277-3.532l2.289,1.12C433.686,287.593,433.32,288.608,433.067,289.647z M462.022,289.171
							c-0.288-1.029-0.688-2.031-1.19-2.977l2.251-1.194c0.588,1.108,1.056,2.281,1.392,3.486L462.022,289.171z M436.381,283.303
							l-1.911-1.685c0.827-0.938,1.758-1.79,2.766-2.533l1.511,2.052C437.885,281.772,437.089,282.501,436.381,283.303z
							 M458.5,282.939c-0.735-0.78-1.555-1.483-2.436-2.088l1.441-2.1c1.032,0.707,1.99,1.529,2.849,2.441L458.5,282.939z
							 M442.26,279.217l-0.912-2.378c1.171-0.449,2.392-0.771,3.631-0.956l0.378,2.519
							C444.3,278.561,443.259,278.835,442.26,279.217z M452.49,279.048c-1.009-0.348-2.061-0.588-3.125-0.712l0.295-2.531
							c1.246,0.146,2.478,0.426,3.661,0.834L452.49,279.048z"/>
					</g>
				</g>
				<g id="XMLID_388_">
					<path id="XMLID_425_" style="fill:#88ACFC;" d="M466.685,443.657c-0.031,0-0.063-0.001-0.095-0.003
						c-0.565-0.031-1.076-0.342-1.365-0.828l-2.469-4.158c-0.478-0.807-0.213-1.849,0.593-2.328
						c0.807-0.479,1.849-0.212,2.328,0.593l1.179,1.986l6.012-7.944c0.566-0.747,1.63-0.897,2.379-0.329
						c0.748,0.566,0.896,1.631,0.329,2.379l-7.537,9.958C467.718,443.409,467.215,443.657,466.685,443.657z"/>
				</g>
			</g>
			<g id="XMLID_426_">
				<g id="XMLID_367_">
					<g id="XMLID_374_">
						<circle id="XMLID_487_" style="fill:#FFCCCC;" cx="106.298" cy="286.695" r="13.052"/>
					</g>
					<g id="XMLID_373_">
						<path id="XMLID_442_" style="fill:#FFCCCC;" d="M34.116,451.305c-7.9,0-14.326-6.427-14.326-14.326
							c0-7.899,6.427-14.326,14.326-14.326c7.899,0,14.326,6.427,14.326,14.326C48.442,444.878,42.015,451.305,34.116,451.305z
							 M34.116,425.201c-6.495,0-11.779,5.283-11.779,11.779c0,6.495,5.284,11.779,11.779,11.779
							c6.495,0,11.778-5.284,11.778-11.779C45.895,430.484,40.611,425.201,34.116,425.201z"/>
					</g>
					<g id="XMLID_372_">
						
							<ellipse id="XMLID_481_" transform="matrix(0.9871 -0.1602 0.1602 0.9871 -55.9765 11.3929)" style="fill:#FFCCCC;" cx="42.677" cy="352.895" rx="13.052" ry="13.052"/>
					</g>
					<g id="XMLID_371_">
						<circle id="XMLID_479_" style="fill:#FFCCCC;" cx="29.624" cy="246.055" r="13.052"/>
					</g>
					<g id="XMLID_370_">
						<path id="XMLID_439_" style="fill:#FFCCCC;" d="M75.495,430.68c-18.798,0-34.092-15.294-34.092-34.092
							s15.294-34.092,34.092-34.092c18.799,0,34.093,15.294,34.093,34.092S94.294,430.68,75.495,430.68z M75.495,365.043
							c-17.394,0-31.545,14.151-31.545,31.545c0,17.394,14.151,31.545,31.545,31.545c17.394,0,31.545-14.151,31.545-31.545
							C107.04,379.194,92.889,365.043,75.495,365.043z"/>
					</g>
					<g id="XMLID_369_">
						<path id="XMLID_436_" style="fill:#FFCCCC;" d="M55.729,319.894c-14.72,0-26.696-11.976-26.696-26.697
							c0-14.72,11.976-26.696,26.696-26.696s26.696,11.976,26.696,26.696C82.425,307.918,70.45,319.894,55.729,319.894z
							 M55.729,269.049c-13.316,0-24.149,10.833-24.149,24.148c0,13.316,10.833,24.149,24.149,24.149s24.149-10.833,24.149-24.149
							C79.878,279.882,69.045,269.049,55.729,269.049z"/>
					</g>
					<g id="XMLID_368_">
						<circle id="XMLID_469_" style="fill:#FFCCCC;" cx="89.603" cy="335.615" r="21.317"/>
					</g>
				</g>
				<g id="XMLID_377_">
					<path id="XMLID_435_" style="fill:#FFCCCC;" d="M51.285,307.633c-0.533,0-1.017-0.335-1.199-0.847L44.1,289.978l-2.413,7.382
						c-0.168,0.515-0.644,0.867-1.186,0.878l-9.244,0.181c-0.716-0.003-1.285-0.546-1.298-1.249
						c-0.014-0.703,0.545-1.285,1.249-1.299l8.339-0.163l3.291-10.069c0.169-0.518,0.649-0.871,1.194-0.878
						c0.536-0.024,1.034,0.333,1.217,0.847l5.474,15.373l1.667-12.414c0.069-0.512,0.441-0.933,0.941-1.063
						c0.501-0.131,1.031,0.055,1.34,0.468l3.995,5.326l3.117-9.339c0.174-0.52,0.66-0.871,1.208-0.871c0,0,0.001,0,0.002,0
						c0.549,0.001,1.035,0.353,1.207,0.873l3.92,11.835l1.298-5.99c0.104-0.48,0.474-0.858,0.952-0.97
						c0.477-0.115,0.978,0.059,1.286,0.443l3.859,4.807h4.9c0.704,0,1.274,0.571,1.274,1.274c0,0.703-0.57,1.274-1.274,1.274h-5.511
						c-0.386,0-0.752-0.175-0.993-0.477l-2.569-3.2l-1.719,7.937c-0.121,0.561-0.603,0.972-1.177,1.003
						c-0.583,0.028-1.097-0.327-1.277-0.872l-4.182-12.626l-2.674,8.009c-0.15,0.449-0.537,0.779-1.005,0.854
						c-0.469,0.079-0.939-0.114-1.222-0.493l-3.585-4.78l-1.953,14.538c-0.078,0.583-0.545,1.037-1.13,1.098
						C51.373,307.63,51.329,307.633,51.285,307.633z"/>
				</g>
				<g id="XMLID_378_">
					<path id="XMLID_434_" style="fill:#FFCCCC;" d="M31.582,443.657c-0.032,0-0.063-0.001-0.095-0.003
						c-0.565-0.031-1.076-0.342-1.365-0.828l-2.469-4.158c-0.479-0.807-0.213-1.848,0.593-2.328
						c0.805-0.479,1.848-0.213,2.327,0.593l1.179,1.986l6.012-7.944c0.566-0.748,1.631-0.897,2.379-0.329
						c0.748,0.566,0.895,1.631,0.329,2.379l-7.537,9.958C32.614,443.409,32.112,443.657,31.582,443.657z"/>
				</g>
				<g id="XMLID_380_">
					<g id="XMLID_379_">
						<path id="XMLID_431_" style="fill:#FFCCCC;" d="M96.409,412.665H54.582c-0.704,0-1.274-0.57-1.274-1.274v-27.236
							c0-0.703,0.57-1.274,1.274-1.274h41.827c0.704,0,1.274,0.571,1.274,1.274v27.236
							C97.683,412.095,97.113,412.665,96.409,412.665z M55.855,410.118h39.28V385.43h-39.28V410.118z"/>
					</g>
					<g id="XMLID_381_">
						<path id="XMLID_430_" style="fill:#FFCCCC;" d="M89.326,401.453h-27.66c-2.149,0-3.897-1.748-3.897-3.897v-12.808
							c0-0.703,0.57-1.274,1.274-1.274c0.704,0,1.274,0.57,1.274,1.274v12.808c0,0.744,0.605,1.349,1.349,1.349h27.66
							c0.744,0,1.349-0.605,1.349-1.349v-11.56c0-0.703,0.57-1.274,1.274-1.274c0.704,0,1.274,0.57,1.274,1.274v11.56
							C93.222,399.705,91.474,401.453,89.326,401.453z"/>
					</g>
					<g id="XMLID_382_">
						<path id="XMLID_429_" style="fill:#FFCCCC;" d="M83.535,385.43c-0.704,0-1.274-0.57-1.274-1.274v-4.761H68.73v4.761
							c0,0.703-0.57,1.274-1.274,1.274c-0.704,0-1.274-0.57-1.274-1.274v-6.035c0-0.703,0.57-1.274,1.274-1.274h16.079
							c0.704,0,1.274,0.571,1.274,1.274v6.035C84.809,384.859,84.239,385.43,83.535,385.43z"/>
					</g>
					<g id="XMLID_386_">
						<path id="XMLID_428_" style="fill:#FFCCCC;" d="M64.952,405.028c-0.704,0-1.274-0.571-1.274-1.274v-7.319
							c0-0.703,0.57-1.274,1.274-1.274c0.704,0,1.274,0.571,1.274,1.274v7.319C66.226,404.458,65.655,405.028,64.952,405.028z"/>
					</g>
					<g id="XMLID_387_">
						<path id="XMLID_427_" style="fill:#FFCCCC;" d="M86.367,405.028c-0.704,0-1.274-0.571-1.274-1.274v-7.319
							c0-0.703,0.57-1.274,1.274-1.274c0.704,0,1.274,0.571,1.274,1.274v7.319C87.641,404.458,87.071,405.028,86.367,405.028z"/>
					</g>
				</g>
			</g>
		</g>
	</g>
</g>
<g id="DESIGNED_BY_FREEPIK">
	<g id="XMLID_7126_">
		<g id="XMLID_7163_">
			<path id="XMLID_7188_" style="fill:#1D1D1B;" d="M184.856,485.014v-0.147c-0.2,0.229-0.397,0.415-0.592,0.558
				c-0.194,0.144-0.405,0.253-0.633,0.327c-0.227,0.076-0.475,0.112-0.744,0.112c-0.356,0-0.686-0.075-0.99-0.226
				c-0.303-0.151-0.566-0.367-0.787-0.646c-0.222-0.28-0.39-0.608-0.504-0.987c-0.114-0.378-0.172-0.787-0.172-1.226
				c0-0.93,0.227-1.656,0.682-2.176c0.454-0.519,1.052-0.779,1.794-0.779c0.428,0,0.79,0.074,1.085,0.22
				c0.295,0.147,0.582,0.374,0.862,0.679v-2.197c0-0.305,0.061-0.536,0.183-0.692c0.121-0.156,0.295-0.234,0.52-0.234
				c0.225,0,0.398,0.072,0.52,0.215c0.122,0.144,0.183,0.355,0.183,0.635v6.563c0,0.284-0.065,0.496-0.196,0.638
				c-0.131,0.141-0.299,0.212-0.507,0.212c-0.203,0-0.372-0.073-0.505-0.22C184.923,485.496,184.856,485.287,184.856,485.014z
				 M181.929,482.828c0,0.404,0.063,0.747,0.188,1.03c0.126,0.284,0.297,0.497,0.515,0.64c0.218,0.144,0.456,0.216,0.714,0.216
				c0.262,0,0.501-0.068,0.717-0.205c0.216-0.136,0.389-0.345,0.518-0.626c0.129-0.282,0.193-0.634,0.193-1.055
				c0-0.396-0.064-0.737-0.193-1.023c-0.129-0.285-0.303-0.503-0.523-0.654c-0.22-0.15-0.461-0.225-0.722-0.225
				c-0.272,0-0.516,0.077-0.73,0.232c-0.214,0.154-0.381,0.375-0.499,0.665C181.988,482.111,181.929,482.447,181.929,482.828z"/>
			<path id="XMLID_7185_" style="fill:#1D1D1B;" d="M191.418,483.205h-2.911c0.004,0.337,0.072,0.636,0.205,0.893
				c0.132,0.258,0.309,0.453,0.529,0.583c0.22,0.131,0.463,0.196,0.728,0.196c0.178,0,0.34-0.02,0.488-0.062
				c0.147-0.043,0.29-0.107,0.428-0.197c0.138-0.089,0.265-0.184,0.381-0.286c0.116-0.102,0.267-0.241,0.452-0.415
				c0.076-0.065,0.186-0.098,0.328-0.098c0.152,0,0.276,0.043,0.37,0.126c0.094,0.084,0.142,0.201,0.142,0.354
				c0,0.135-0.053,0.291-0.158,0.471c-0.106,0.18-0.265,0.353-0.477,0.518c-0.213,0.165-0.479,0.302-0.802,0.411
				c-0.321,0.109-0.691,0.164-1.109,0.164c-0.955,0-1.699-0.273-2.229-0.818c-0.531-0.545-0.796-1.285-0.796-2.218
				c0-0.44,0.065-0.848,0.196-1.224c0.131-0.377,0.322-0.699,0.572-0.968c0.251-0.269,0.56-0.475,0.927-0.619
				c0.367-0.143,0.774-0.215,1.221-0.215c0.581,0,1.08,0.122,1.496,0.368c0.417,0.245,0.729,0.562,0.935,0.951
				c0.207,0.389,0.311,0.786,0.311,1.188c0,0.375-0.107,0.617-0.321,0.729C192.11,483.149,191.808,483.205,191.418,483.205z
				 M188.508,482.36h2.699c-0.036-0.509-0.174-0.89-0.412-1.142c-0.238-0.253-0.551-0.379-0.94-0.379
				c-0.371,0-0.675,0.128-0.913,0.384C188.703,481.479,188.559,481.858,188.508,482.36z"/>
			<path id="XMLID_7183_" style="fill:#1D1D1B;" d="M198.2,483.918c0,0.411-0.1,0.763-0.3,1.055
				c-0.199,0.293-0.495,0.514-0.886,0.665c-0.39,0.151-0.866,0.226-1.425,0.226c-0.534,0-0.992-0.082-1.374-0.246
				c-0.381-0.163-0.663-0.368-0.845-0.613c-0.182-0.246-0.273-0.492-0.273-0.739c0-0.164,0.058-0.303,0.175-0.419
				c0.116-0.116,0.263-0.174,0.442-0.174c0.156,0,0.275,0.038,0.359,0.114c0.084,0.076,0.164,0.184,0.24,0.321
				c0.153,0.266,0.336,0.463,0.548,0.595c0.213,0.131,0.502,0.196,0.87,0.196c0.298,0,0.542-0.067,0.733-0.199
				c0.191-0.133,0.286-0.285,0.286-0.456c0-0.262-0.099-0.452-0.297-0.572c-0.198-0.12-0.524-0.235-0.979-0.344
				c-0.512-0.127-0.929-0.261-1.251-0.401c-0.322-0.139-0.579-0.324-0.771-0.553c-0.192-0.229-0.289-0.511-0.289-0.845
				c0-0.298,0.089-0.579,0.267-0.845c0.178-0.265,0.441-0.476,0.788-0.635c0.346-0.159,0.765-0.238,1.256-0.238
				c0.385,0,0.732,0.04,1.038,0.121c0.308,0.079,0.564,0.187,0.769,0.322c0.205,0.134,0.362,0.283,0.469,0.446
				c0.107,0.164,0.161,0.323,0.161,0.48c0,0.17-0.057,0.311-0.171,0.42c-0.114,0.108-0.277,0.164-0.488,0.164
				c-0.153,0-0.283-0.044-0.39-0.132c-0.107-0.087-0.23-0.217-0.368-0.392c-0.113-0.145-0.245-0.262-0.398-0.349
				c-0.153-0.087-0.36-0.131-0.622-0.131c-0.269,0-0.492,0.057-0.67,0.172c-0.178,0.114-0.267,0.256-0.267,0.427
				c0,0.157,0.065,0.285,0.196,0.384c0.131,0.1,0.307,0.183,0.529,0.248c0.222,0.065,0.526,0.145,0.916,0.239
				c0.461,0.113,0.838,0.248,1.131,0.404c0.292,0.156,0.514,0.341,0.666,0.554C198.124,483.403,198.2,483.646,198.2,483.918z"/>
			<path id="XMLID_7180_" style="fill:#1D1D1B;" d="M199.72,479.122c-0.207,0-0.384-0.064-0.531-0.191
				c-0.147-0.127-0.221-0.307-0.221-0.54c0-0.211,0.075-0.384,0.226-0.521c0.151-0.137,0.327-0.204,0.526-0.204
				c0.193,0,0.363,0.062,0.512,0.185c0.149,0.124,0.224,0.303,0.224,0.54c0,0.229-0.073,0.408-0.219,0.537
				C200.092,479.057,199.92,479.122,199.72,479.122z M200.456,480.659v4.301c0,0.298-0.071,0.524-0.213,0.677
				c-0.142,0.152-0.321,0.229-0.54,0.229c-0.218,0-0.395-0.078-0.532-0.234c-0.137-0.156-0.204-0.38-0.204-0.671v-4.257
				c0-0.294,0.068-0.516,0.204-0.665c0.136-0.149,0.313-0.224,0.532-0.224c0.218,0,0.398,0.075,0.54,0.224
				C200.385,480.186,200.456,480.394,200.456,480.659z"/>
			<path id="XMLID_7177_" style="fill:#1D1D1B;" d="M206.975,480.904v4.322c0,0.494-0.053,0.92-0.159,1.276
				c-0.105,0.355-0.274,0.65-0.507,0.883c-0.233,0.232-0.537,0.405-0.913,0.517c-0.376,0.113-0.844,0.169-1.404,0.169
				c-0.512,0-0.97-0.072-1.374-0.215c-0.403-0.144-0.714-0.329-0.932-0.556c-0.218-0.227-0.327-0.461-0.327-0.701
				c0-0.182,0.062-0.33,0.186-0.444c0.123-0.115,0.273-0.172,0.447-0.172c0.218,0,0.409,0.096,0.572,0.289
				c0.08,0.098,0.162,0.198,0.248,0.298c0.085,0.1,0.18,0.185,0.284,0.257c0.104,0.07,0.228,0.123,0.373,0.158
				c0.146,0.034,0.313,0.052,0.502,0.052c0.385,0,0.684-0.053,0.897-0.161c0.213-0.107,0.362-0.257,0.447-0.45
				c0.085-0.192,0.135-0.398,0.15-0.618c0.015-0.22,0.025-0.573,0.033-1.061c-0.229,0.321-0.493,0.564-0.793,0.731
				c-0.3,0.167-0.657,0.251-1.071,0.251c-0.498,0-0.933-0.127-1.306-0.382c-0.372-0.254-0.659-0.61-0.858-1.068
				c-0.2-0.458-0.3-0.986-0.3-1.586c0-0.447,0.061-0.851,0.182-1.21c0.122-0.36,0.296-0.664,0.521-0.911
				c0.225-0.247,0.485-0.433,0.779-0.559c0.294-0.125,0.618-0.188,0.97-0.188c0.421,0,0.787,0.081,1.096,0.242
				c0.309,0.163,0.596,0.416,0.861,0.761v-0.202c0-0.258,0.063-0.457,0.191-0.6c0.128-0.141,0.291-0.213,0.491-0.213
				c0.287,0,0.478,0.094,0.572,0.281C206.928,480.281,206.975,480.552,206.975,480.904z M202.663,482.79
				c0,0.603,0.131,1.059,0.395,1.368c0.264,0.309,0.605,0.464,1.022,0.464c0.247,0,0.48-0.067,0.7-0.199
				c0.22-0.133,0.399-0.333,0.537-0.6c0.138-0.267,0.207-0.591,0.207-0.973c0-0.606-0.133-1.079-0.401-1.417
				c-0.267-0.338-0.619-0.507-1.055-0.507c-0.425,0-0.766,0.162-1.022,0.485C202.791,481.734,202.663,482.194,202.663,482.79z"/>
			<path id="XMLID_7175_" style="fill:#1D1D1B;" d="M209.34,480.637v0.18c0.261-0.345,0.548-0.599,0.858-0.761
				c0.311-0.161,0.668-0.243,1.071-0.243c0.393,0,0.743,0.086,1.052,0.257c0.309,0.171,0.54,0.413,0.692,0.724
				c0.099,0.182,0.162,0.379,0.191,0.589c0.029,0.211,0.044,0.48,0.044,0.807v2.769c0,0.298-0.068,0.524-0.205,0.677
				c-0.136,0.152-0.313,0.229-0.531,0.229c-0.222,0-0.402-0.078-0.54-0.234c-0.138-0.156-0.207-0.38-0.207-0.671v-2.48
				c0-0.49-0.068-0.866-0.205-1.125c-0.137-0.259-0.408-0.39-0.815-0.39c-0.265,0-0.507,0.079-0.725,0.237
				c-0.218,0.159-0.378,0.376-0.48,0.652c-0.073,0.222-0.109,0.636-0.109,1.243v1.864c0,0.302-0.07,0.529-0.21,0.679
				c-0.14,0.151-0.321,0.226-0.542,0.226c-0.215,0-0.391-0.078-0.529-0.234c-0.138-0.156-0.207-0.38-0.207-0.671v-4.301
				c0-0.284,0.062-0.495,0.185-0.636c0.124-0.14,0.293-0.21,0.507-0.21c0.131,0,0.249,0.031,0.355,0.093
				c0.105,0.062,0.19,0.155,0.253,0.277C209.309,480.308,209.34,480.459,209.34,480.637z"/>
			<path id="XMLID_7172_" style="fill:#1D1D1B;" d="M218.394,483.205h-2.911c0.004,0.337,0.072,0.636,0.205,0.893
				c0.132,0.258,0.309,0.453,0.529,0.583c0.219,0.131,0.462,0.196,0.727,0.196c0.178,0,0.341-0.02,0.488-0.062
				c0.146-0.043,0.289-0.107,0.428-0.197c0.138-0.089,0.265-0.184,0.382-0.286c0.116-0.102,0.266-0.241,0.452-0.415
				c0.076-0.065,0.185-0.098,0.327-0.098c0.153,0,0.276,0.043,0.371,0.126c0.094,0.084,0.142,0.201,0.142,0.354
				c0,0.135-0.052,0.291-0.158,0.471c-0.106,0.18-0.264,0.353-0.477,0.518c-0.213,0.165-0.479,0.302-0.801,0.411
				c-0.322,0.109-0.692,0.164-1.109,0.164c-0.956,0-1.699-0.273-2.23-0.818c-0.53-0.545-0.796-1.285-0.796-2.218
				c0-0.44,0.066-0.848,0.196-1.224c0.131-0.377,0.322-0.699,0.573-0.968c0.251-0.269,0.56-0.475,0.926-0.619
				c0.367-0.143,0.774-0.215,1.221-0.215c0.581,0,1.079,0.122,1.496,0.368c0.417,0.245,0.728,0.562,0.936,0.951
				c0.207,0.389,0.311,0.786,0.311,1.188c0,0.375-0.107,0.617-0.322,0.729C219.085,483.149,218.783,483.205,218.394,483.205z
				 M215.483,482.36h2.698c-0.036-0.509-0.173-0.89-0.411-1.142c-0.238-0.253-0.551-0.379-0.94-0.379
				c-0.371,0-0.676,0.128-0.914,0.384C215.678,481.479,215.534,481.858,215.483,482.36z"/>
			<path id="XMLID_7169_" style="fill:#1D1D1B;" d="M224.46,485.014v-0.147c-0.2,0.229-0.397,0.415-0.591,0.558
				c-0.195,0.144-0.405,0.253-0.632,0.327c-0.227,0.076-0.475,0.112-0.744,0.112c-0.357,0-0.686-0.075-0.99-0.226
				c-0.303-0.151-0.566-0.367-0.788-0.646c-0.222-0.28-0.39-0.608-0.504-0.987c-0.115-0.378-0.172-0.787-0.172-1.226
				c0-0.93,0.227-1.656,0.681-2.176c0.454-0.519,1.052-0.779,1.794-0.779c0.429,0,0.791,0.074,1.085,0.22
				c0.294,0.147,0.581,0.374,0.861,0.679v-2.197c0-0.305,0.061-0.536,0.183-0.692c0.121-0.156,0.295-0.234,0.521-0.234
				c0.225,0,0.398,0.072,0.52,0.215c0.122,0.144,0.183,0.355,0.183,0.635v6.563c0,0.284-0.065,0.496-0.196,0.638
				c-0.131,0.141-0.3,0.212-0.507,0.212c-0.204,0-0.372-0.073-0.504-0.22C224.527,485.496,224.46,485.287,224.46,485.014z
				 M221.533,482.828c0,0.404,0.062,0.747,0.188,1.03c0.125,0.284,0.297,0.497,0.516,0.64c0.218,0.144,0.456,0.216,0.714,0.216
				c0.262,0,0.501-0.068,0.717-0.205c0.216-0.136,0.389-0.345,0.518-0.626c0.129-0.282,0.194-0.634,0.194-1.055
				c0-0.396-0.064-0.737-0.194-1.023c-0.129-0.285-0.303-0.503-0.523-0.654c-0.22-0.15-0.461-0.225-0.722-0.225
				c-0.272,0-0.516,0.077-0.73,0.232c-0.214,0.154-0.38,0.375-0.499,0.665C221.592,482.111,221.533,482.447,221.533,482.828z"/>
			<path id="XMLID_7166_" style="fill:#1D1D1B;" d="M230.543,478.451v2.273c0.28-0.29,0.565-0.513,0.856-0.668
				c0.291-0.154,0.651-0.231,1.079-0.231c0.494,0,0.927,0.117,1.3,0.351c0.372,0.236,0.661,0.575,0.867,1.02
				c0.205,0.445,0.308,0.973,0.308,1.584c0,0.451-0.057,0.863-0.172,1.24c-0.115,0.376-0.281,0.702-0.499,0.978
				c-0.218,0.276-0.482,0.49-0.793,0.641c-0.311,0.151-0.654,0.226-1.028,0.226c-0.229,0-0.445-0.027-0.646-0.082
				c-0.202-0.054-0.374-0.125-0.515-0.215c-0.141-0.089-0.262-0.181-0.362-0.275c-0.1-0.094-0.232-0.237-0.395-0.425v0.147
				c0,0.28-0.067,0.492-0.202,0.636c-0.134,0.143-0.305,0.215-0.512,0.215c-0.211,0-0.379-0.071-0.504-0.215
				c-0.126-0.144-0.188-0.356-0.188-0.636v-6.498c0-0.302,0.061-0.53,0.182-0.684c0.122-0.154,0.292-0.231,0.51-0.231
				c0.229,0,0.405,0.073,0.529,0.22C230.481,477.969,230.543,478.178,230.543,478.451z M230.614,482.872
				c0,0.592,0.135,1.047,0.406,1.365c0.271,0.318,0.626,0.478,1.066,0.478c0.374,0,0.697-0.163,0.967-0.488
				c0.271-0.326,0.406-0.791,0.406-1.398c0-0.392-0.056-0.731-0.169-1.014c-0.113-0.284-0.272-0.503-0.479-0.657
				c-0.207-0.154-0.449-0.232-0.725-0.232c-0.283,0-0.536,0.077-0.758,0.232c-0.222,0.154-0.396,0.378-0.524,0.67
				C230.677,482.12,230.614,482.469,230.614,482.872z"/>
			<path id="XMLID_7164_" style="fill:#1D1D1B;" d="M236.883,486.05l0.136-0.333l-1.832-4.612c-0.112-0.265-0.169-0.458-0.169-0.578
				c0-0.127,0.033-0.245,0.098-0.354c0.066-0.109,0.155-0.197,0.27-0.262c0.115-0.066,0.234-0.099,0.357-0.099
				c0.214,0,0.376,0.068,0.485,0.205c0.109,0.136,0.205,0.331,0.289,0.586l1.259,3.663l1.194-3.407
				c0.094-0.275,0.18-0.492,0.256-0.648c0.076-0.156,0.157-0.262,0.242-0.316c0.085-0.055,0.206-0.082,0.363-0.082
				c0.113,0,0.221,0.03,0.324,0.09c0.103,0.06,0.183,0.141,0.24,0.243c0.056,0.101,0.085,0.208,0.085,0.321
				c-0.015,0.069-0.038,0.167-0.071,0.295c-0.033,0.127-0.072,0.257-0.12,0.387l-1.941,5.081c-0.168,0.447-0.331,0.797-0.491,1.052
				c-0.16,0.254-0.371,0.451-0.635,0.586c-0.264,0.137-0.619,0.205-1.066,0.205c-0.436,0-0.763-0.047-0.981-0.141
				c-0.219-0.095-0.327-0.268-0.327-0.518c0-0.17,0.051-0.303,0.156-0.395c0.103-0.092,0.257-0.14,0.46-0.14
				c0.08,0,0.159,0.011,0.235,0.034c0.094,0.021,0.176,0.033,0.245,0.033c0.171,0,0.305-0.025,0.404-0.077
				c0.098-0.05,0.186-0.138,0.264-0.265C236.691,486.478,236.781,486.293,236.883,486.05z"/>
		</g>
		<g id="XMLID_7141_">
			<path id="XMLID_7162_" style="fill:#1D1D1B;" d="M258.441,479.942h0.355v-0.447c0-0.467,0.057-0.836,0.176-1.112
				c0.117-0.275,0.319-0.474,0.601-0.6c0.281-0.124,0.668-0.187,1.157-0.187c0.872,0,1.304,0.211,1.304,0.639
				c0,0.137-0.045,0.255-0.138,0.353c-0.089,0.097-0.197,0.147-0.32,0.147c-0.057,0-0.16-0.011-0.303-0.034
				c-0.136-0.019-0.259-0.032-0.358-0.032c-0.268,0-0.44,0.081-0.52,0.238c-0.073,0.158-0.112,0.384-0.112,0.68v0.354h0.363
				c0.569,0,0.85,0.17,0.85,0.514c0,0.24-0.073,0.396-0.225,0.462c-0.15,0.066-0.358,0.098-0.625,0.098h-0.363v3.944
				c0,0.293-0.069,0.517-0.212,0.67c-0.139,0.156-0.318,0.233-0.541,0.233c-0.211,0-0.385-0.077-0.527-0.233
				c-0.14-0.154-0.209-0.377-0.209-0.67v-3.944h-0.41c-0.223,0-0.392-0.048-0.513-0.15c-0.12-0.098-0.181-0.229-0.181-0.389
				C257.693,480.119,257.943,479.942,258.441,479.942"/>
			<path id="XMLID_7161_" style="fill:#1D1D1B;" d="M263.314,483.716v1.244c0,0.301-0.076,0.527-0.215,0.677
				c-0.142,0.152-0.321,0.227-0.538,0.227c-0.219,0-0.395-0.075-0.532-0.23c-0.136-0.151-0.207-0.377-0.207-0.674v-4.145
				c0-0.669,0.241-1.004,0.724-1.004c0.249,0,0.427,0.077,0.536,0.234c0.109,0.157,0.169,0.387,0.182,0.693
				c0.177-0.307,0.358-0.536,0.544-0.693c0.191-0.157,0.438-0.234,0.752-0.234c0.315,0,0.615,0.077,0.91,0.234
				c0.296,0.157,0.443,0.365,0.443,0.623c0,0.181-0.063,0.333-0.187,0.448c-0.126,0.12-0.261,0.179-0.405,0.179
				c-0.057,0-0.19-0.036-0.397-0.103c-0.21-0.065-0.395-0.099-0.553-0.099c-0.218,0-0.397,0.059-0.535,0.171
				c-0.139,0.118-0.247,0.285-0.324,0.509c-0.074,0.227-0.125,0.497-0.156,0.806C263.327,482.889,263.314,483.269,263.314,483.716"
				/>
			<path id="XMLID_7158_" style="fill:#1D1D1B;" d="M270.156,483.203h-2.912c0.005,0.337,0.071,0.637,0.204,0.895
				c0.135,0.256,0.31,0.451,0.531,0.583c0.221,0.131,0.461,0.195,0.728,0.195c0.178,0,0.34-0.019,0.488-0.064
				c0.146-0.04,0.29-0.106,0.428-0.196c0.139-0.087,0.264-0.183,0.381-0.287c0.116-0.1,0.268-0.239,0.453-0.413
				c0.077-0.065,0.186-0.1,0.326-0.1c0.154,0,0.276,0.043,0.373,0.127c0.095,0.085,0.14,0.201,0.14,0.354
				c0,0.135-0.051,0.292-0.154,0.47c-0.108,0.182-0.266,0.354-0.48,0.52c-0.215,0.164-0.481,0.303-0.802,0.41
				c-0.321,0.109-0.692,0.164-1.109,0.164c-0.959,0-1.701-0.271-2.231-0.816c-0.53-0.547-0.799-1.287-0.799-2.22
				c0-0.44,0.067-0.849,0.2-1.225c0.129-0.378,0.32-0.698,0.573-0.968c0.25-0.27,0.557-0.475,0.925-0.619
				c0.366-0.143,0.773-0.215,1.221-0.215c0.58,0,1.079,0.123,1.496,0.371c0.415,0.243,0.731,0.56,0.935,0.949
				c0.207,0.391,0.311,0.785,0.311,1.19c0,0.372-0.108,0.614-0.322,0.726C270.845,483.148,270.544,483.203,270.156,483.203
				 M267.243,482.357h2.698c-0.036-0.508-0.171-0.889-0.41-1.14c-0.24-0.254-0.55-0.379-0.942-0.379
				c-0.37,0-0.675,0.126-0.914,0.384C267.439,481.478,267.293,481.856,267.243,482.357"/>
			<path id="XMLID_7155_" style="fill:#1D1D1B;" d="M276.347,483.203h-2.912c0.003,0.337,0.072,0.637,0.203,0.895
				c0.133,0.256,0.309,0.451,0.529,0.583c0.22,0.131,0.462,0.195,0.73,0.195c0.177,0,0.34-0.019,0.485-0.064
				c0.148-0.04,0.29-0.106,0.43-0.196c0.139-0.087,0.264-0.183,0.381-0.287c0.114-0.1,0.266-0.239,0.452-0.413
				c0.077-0.065,0.187-0.1,0.326-0.1c0.154,0,0.277,0.043,0.373,0.127c0.095,0.085,0.138,0.201,0.138,0.354
				c0,0.135-0.05,0.292-0.157,0.47c-0.102,0.182-0.261,0.354-0.476,0.52c-0.212,0.164-0.482,0.303-0.801,0.41
				c-0.32,0.109-0.693,0.164-1.11,0.164c-0.957,0-1.698-0.271-2.231-0.816c-0.53-0.547-0.797-1.287-0.797-2.22
				c0-0.44,0.067-0.849,0.199-1.225c0.13-0.378,0.321-0.698,0.572-0.968c0.25-0.27,0.558-0.475,0.926-0.619
				c0.366-0.143,0.775-0.215,1.222-0.215c0.579,0,1.078,0.123,1.5,0.371c0.413,0.243,0.726,0.56,0.93,0.949
				c0.206,0.391,0.313,0.785,0.313,1.19c0,0.372-0.11,0.614-0.322,0.726C277.035,483.148,276.735,483.203,276.347,483.203
				 M273.435,482.357h2.698c-0.036-0.508-0.174-0.889-0.41-1.14c-0.242-0.254-0.552-0.379-0.943-0.379
				c-0.37,0-0.675,0.126-0.914,0.384C273.629,481.478,273.483,481.856,273.435,482.357"/>
			<path id="XMLID_7152_" style="fill:#1D1D1B;" d="M279.607,480.648v0.178c0.279-0.345,0.571-0.598,0.875-0.76
				c0.298-0.163,0.642-0.245,1.023-0.245c0.456,0,0.881,0.119,1.267,0.354c0.385,0.238,0.688,0.583,0.912,1.037
				c0.224,0.456,0.336,0.993,0.336,1.615c0,0.457-0.064,0.879-0.193,1.263c-0.128,0.383-0.308,0.704-0.533,0.964
				c-0.226,0.258-0.491,0.46-0.798,0.6c-0.311,0.138-0.638,0.208-0.991,0.208c-0.424,0-0.783-0.085-1.07-0.257
				c-0.289-0.168-0.564-0.421-0.827-0.749v2.234c0,0.652-0.239,0.981-0.714,0.981c-0.281,0-0.464-0.084-0.558-0.252
				c-0.087-0.171-0.134-0.415-0.134-0.741v-6.424c0-0.284,0.061-0.493,0.184-0.636c0.123-0.137,0.294-0.209,0.508-0.209
				c0.212,0,0.382,0.072,0.514,0.215C279.542,480.171,279.607,480.376,279.607,480.648 M282.524,482.81
				c0-0.393-0.061-0.731-0.18-1.012c-0.12-0.283-0.286-0.498-0.497-0.647c-0.211-0.151-0.449-0.228-0.707-0.228
				c-0.41,0-0.757,0.163-1.038,0.484c-0.283,0.325-0.424,0.801-0.424,1.431c0,0.589,0.14,1.052,0.422,1.381
				c0.28,0.329,0.623,0.493,1.04,0.493c0.246,0,0.477-0.072,0.687-0.214c0.213-0.145,0.382-0.36,0.507-0.647
				C282.46,483.564,282.524,483.217,282.524,482.81"/>
			<path id="XMLID_7149_" style="fill:#1D1D1B;" d="M285.518,479.118c-0.208,0-0.384-0.066-0.53-0.192
				c-0.149-0.128-0.223-0.305-0.223-0.538c0-0.211,0.075-0.384,0.228-0.522c0.15-0.135,0.325-0.204,0.525-0.204
				c0.195,0,0.365,0.061,0.513,0.183c0.149,0.126,0.224,0.307,0.224,0.543c0,0.229-0.073,0.408-0.217,0.537
				C285.892,479.052,285.72,479.118,285.518,479.118 M286.255,480.655v4.306c0,0.296-0.071,0.521-0.212,0.673
				c-0.144,0.155-0.322,0.23-0.54,0.23c-0.219,0-0.393-0.077-0.533-0.233c-0.134-0.159-0.204-0.382-0.204-0.669v-4.263
				c0-0.293,0.07-0.513,0.204-0.663c0.14-0.152,0.314-0.225,0.533-0.225c0.219,0,0.397,0.073,0.54,0.225
				C286.184,480.185,286.255,480.392,286.255,480.655"/>
			<path id="XMLID_7148_" style="fill:#1D1D1B;" d="M291.053,485.184l-1.311-2.161l-0.808,0.762v1.185
				c0,0.286-0.076,0.506-0.228,0.66c-0.147,0.156-0.325,0.233-0.52,0.233c-0.229,0-0.41-0.075-0.54-0.23
				c-0.13-0.151-0.197-0.377-0.197-0.674v-6.35c0-0.329,0.066-0.58,0.19-0.754c0.128-0.175,0.313-0.259,0.547-0.259
				c0.229,0,0.409,0.078,0.545,0.236c0.135,0.155,0.203,0.387,0.203,0.69v3.612l1.674-1.758c0.208-0.216,0.363-0.368,0.475-0.447
				c0.109-0.08,0.241-0.119,0.396-0.119c0.187,0,0.341,0.059,0.468,0.177c0.121,0.118,0.184,0.267,0.184,0.444
				c0,0.217-0.203,0.51-0.605,0.873l-0.79,0.725l1.526,2.401c0.111,0.18,0.194,0.312,0.243,0.405
				c0.048,0.091,0.074,0.183,0.074,0.265c0,0.237-0.066,0.422-0.195,0.56c-0.129,0.136-0.301,0.203-0.508,0.203
				c-0.182,0-0.324-0.047-0.421-0.147C291.355,485.617,291.219,485.439,291.053,485.184"/>
			<path id="XMLID_7147_" style="fill:#1D1D1B;" d="M294.287,485.863c-0.225,0-0.418-0.072-0.582-0.219
				c-0.163-0.143-0.246-0.348-0.246-0.611c0-0.221,0.079-0.413,0.235-0.571c0.158-0.16,0.349-0.241,0.578-0.241
				c0.228,0,0.422,0.08,0.587,0.237c0.16,0.158,0.242,0.351,0.242,0.575c0,0.259-0.082,0.464-0.242,0.608
				C294.695,485.791,294.505,485.863,294.287,485.863"/>
			<path id="XMLID_7146_" style="fill:#1D1D1B;" d="M301.69,484.021c0,0.184-0.055,0.383-0.167,0.594
				c-0.11,0.212-0.28,0.412-0.508,0.603c-0.227,0.191-0.512,0.346-0.858,0.461c-0.345,0.116-0.735,0.176-1.165,0.176
				c-0.922,0-1.641-0.27-2.157-0.804c-0.514-0.537-0.772-1.257-0.772-2.158c0-0.613,0.117-1.151,0.355-1.621
				c0.234-0.467,0.576-0.831,1.022-1.087c0.447-0.257,0.985-0.385,1.603-0.385c0.387,0,0.739,0.056,1.063,0.169
				c0.322,0.112,0.592,0.259,0.818,0.435c0.222,0.181,0.393,0.369,0.511,0.569c0.119,0.202,0.177,0.391,0.177,0.567
				c0,0.177-0.065,0.328-0.197,0.452c-0.135,0.123-0.296,0.186-0.481,0.186c-0.126,0-0.228-0.033-0.311-0.095
				c-0.082-0.064-0.175-0.166-0.275-0.311c-0.182-0.275-0.371-0.483-0.572-0.619c-0.197-0.14-0.448-0.208-0.754-0.208
				c-0.437,0-0.794,0.171-1.064,0.515c-0.269,0.342-0.404,0.815-0.404,1.409c0,0.28,0.036,0.539,0.105,0.773
				c0.067,0.234,0.167,0.434,0.299,0.599c0.132,0.165,0.289,0.29,0.474,0.375c0.186,0.088,0.391,0.13,0.61,0.13
				c0.299,0,0.555-0.069,0.767-0.207c0.216-0.138,0.403-0.349,0.566-0.633c0.091-0.167,0.188-0.297,0.292-0.392
				c0.105-0.094,0.235-0.143,0.388-0.143c0.182,0,0.333,0.071,0.451,0.208C301.629,483.717,301.69,483.866,301.69,484.021"/>
			<path id="XMLID_7143_" style="fill:#1D1D1B;" d="M308.113,482.838c0,0.442-0.07,0.852-0.204,1.227
				c-0.142,0.374-0.34,0.696-0.602,0.963c-0.261,0.269-0.575,0.475-0.937,0.62c-0.367,0.142-0.775,0.215-1.227,0.215
				c-0.451,0-0.857-0.073-1.217-0.22c-0.358-0.143-0.672-0.353-0.933-0.621c-0.265-0.274-0.464-0.594-0.604-0.962
				c-0.132-0.369-0.201-0.777-0.201-1.223c0-0.451,0.071-0.864,0.206-1.239c0.139-0.375,0.338-0.696,0.596-0.96
				c0.259-0.265,0.57-0.469,0.936-0.614c0.369-0.143,0.775-0.215,1.217-0.215c0.45,0,0.86,0.072,1.227,0.219
				c0.366,0.144,0.679,0.353,0.943,0.619c0.263,0.272,0.461,0.591,0.597,0.96C308.044,481.983,308.113,482.389,308.113,482.838
				 M306.619,482.838c0-0.608-0.134-1.079-0.401-1.417c-0.266-0.342-0.625-0.51-1.076-0.51c-0.292,0-0.548,0.076-0.771,0.226
				c-0.222,0.15-0.391,0.373-0.511,0.668c-0.12,0.295-0.181,0.639-0.181,1.032c0,0.39,0.059,0.727,0.178,1.018
				c0.119,0.293,0.288,0.515,0.508,0.669c0.221,0.153,0.479,0.232,0.776,0.232c0.45,0,0.81-0.17,1.076-0.512
				C306.484,483.907,306.619,483.436,306.619,482.838"/>
			<path id="XMLID_7142_" style="fill:#1D1D1B;" d="M313.79,482.948v1.978c0,0.314-0.069,0.546-0.212,0.704
				c-0.143,0.156-0.328,0.234-0.561,0.234c-0.225,0-0.41-0.078-0.546-0.234c-0.142-0.159-0.214-0.391-0.214-0.704v-2.371
				c0-0.375-0.012-0.667-0.036-0.875c-0.026-0.203-0.096-0.376-0.208-0.507c-0.113-0.135-0.292-0.202-0.534-0.202
				c-0.488,0-0.808,0.167-0.962,0.506c-0.154,0.331-0.233,0.811-0.233,1.439v2.01c0,0.309-0.07,0.543-0.207,0.702
				c-0.143,0.157-0.326,0.237-0.554,0.237c-0.227,0-0.411-0.08-0.555-0.237c-0.145-0.159-0.216-0.393-0.216-0.702v-4.258
				c0-0.281,0.064-0.494,0.192-0.638c0.132-0.147,0.302-0.219,0.511-0.219c0.204,0,0.374,0.071,0.512,0.204
				c0.136,0.137,0.203,0.325,0.203,0.565v0.141c0.26-0.307,0.536-0.535,0.829-0.678c0.297-0.149,0.621-0.221,0.983-0.221
				c0.374,0,0.695,0.075,0.963,0.224c0.27,0.15,0.49,0.376,0.666,0.675c0.252-0.303,0.522-0.53,0.809-0.678
				c0.287-0.147,0.604-0.221,0.954-0.221c0.405,0,0.758,0.082,1.053,0.241c0.293,0.16,0.512,0.39,0.659,0.686
				c0.127,0.271,0.19,0.694,0.19,1.272v2.906c0,0.314-0.07,0.546-0.211,0.704c-0.141,0.156-0.33,0.234-0.562,0.234
				c-0.227,0-0.41-0.08-0.554-0.237c-0.144-0.159-0.216-0.393-0.216-0.702v-2.503c0-0.321-0.013-0.576-0.04-0.768
				c-0.027-0.193-0.101-0.356-0.22-0.486c-0.122-0.131-0.304-0.197-0.547-0.197c-0.196,0-0.382,0.061-0.559,0.177
				c-0.176,0.114-0.314,0.273-0.414,0.466C313.847,481.866,313.79,482.31,313.79,482.948"/>
		</g>
		<g id="XMLID_7127_">
			<path id="XMLID_7140_" style="fill:#1D1D1B;" d="M244.513,482.478c-0.001-0.003-0.001-0.006-0.001-0.01
				C244.512,482.472,244.512,482.475,244.513,482.478z"/>
			<path id="XMLID_7139_" style="fill:#1D1D1B;" d="M244.588,482.954c0.001,0,0.001,0,0.002,0c-0.029-0.136-0.051-0.27-0.068-0.403
				C244.539,482.685,244.561,482.82,244.588,482.954z"/>
			<path id="XMLID_7138_" style="fill:#1D1D1B;" d="M245.081,484.335c-0.003-0.006-0.006-0.012-0.01-0.019
				C245.075,484.323,245.077,484.329,245.081,484.335z"/>
			<path id="XMLID_7137_" style="fill:#1D1D1B;" d="M245.034,484.243c-0.013-0.025-0.025-0.052-0.037-0.077
				C245.008,484.193,245.021,484.218,245.034,484.243z"/>
			<path id="XMLID_7136_" style="fill:#1D1D1B;" d="M244.727,483.486c0.073,0.23,0.161,0.452,0.262,0.665
				c-0.103-0.217-0.189-0.44-0.26-0.665H244.727z"/>
			<path id="XMLID_7135_" style="fill:#1D1D1B;" d="M250.274,476.775c0.288,0,0.5,0.023,0.743,0.064l0.069-0.438
				c0,0-0.672-0.207-1.556-0.135l-0.069-0.238c0.275-0.058,0.481-0.302,0.481-0.594c0-0.334-0.272-0.605-0.607-0.605
				c-0.335,0-0.606,0.271-0.606,0.605c0,0.292,0.206,0.536,0.48,0.594l0.077,0.266c-0.938,0.129-1.685,0.495-1.685,0.495
				l0.132,0.405c0.567-0.189,1.06-0.304,1.506-0.352C249.677,476.795,250.006,476.775,250.274,476.775z"/>
			<path id="XMLID_7134_" style="fill:#1D1D1B;" d="M245.07,478.99l0.003-0.004c0.022-0.029,0.043-0.056,0.065-0.082l-0.18-0.129
				l-0.28-0.204c-0.016,0.022-0.456,0.427-0.804,1.175c-0.015-0.023-0.032-0.047-0.051-0.068c-0.104-0.114-0.25-0.172-0.435-0.169
				c-0.002,0-0.005,0-0.008,0c-0.115,0-0.193-0.038-0.245-0.085c0.051-0.065,0.082-0.147,0.082-0.237
				c0-0.211-0.172-0.384-0.384-0.384c-0.212,0-0.384,0.173-0.384,0.384c0,0.212,0.172,0.384,0.384,0.384
				c0.033,0,0.065-0.006,0.096-0.012c0.094,0.105,0.244,0.196,0.464,0.192c0.113-0.001,0.196,0.028,0.251,0.089
				c0.064,0.069,0.085,0.17,0.092,0.245c-0.001,0.001-0.001,0.003-0.002,0.003c-0.25,0.683-0.179,1.532-0.179,1.532l0.607,0.024
				c0.012-0.309,0.057-0.851,0.213-1.28C244.676,479.531,245.054,479.011,245.07,478.99z"/>
			<path id="XMLID_7133_" style="fill:#1D1D1B;" d="M255.554,477.282c-0.211,0-0.384,0.172-0.384,0.384
				c0,0.033,0.005,0.065,0.013,0.095c-0.105,0.095-0.197,0.245-0.193,0.465c0.002,0.113-0.028,0.195-0.089,0.251
				c-0.049,0.043-0.11,0.066-0.17,0.081c-0.452-0.633-1.008-1.019-1.008-1.019l-0.436,0.467c0.329,0.299,0.665,0.674,0.992,1.142
				c0.226,0.323,0.459,0.74,0.652,1.156l0.588-0.279c0,0-0.268-0.663-0.646-1.258c0.066-0.023,0.132-0.059,0.19-0.11
				c0.115-0.104,0.172-0.25,0.168-0.435c-0.001-0.119,0.038-0.2,0.085-0.253c0.066,0.05,0.147,0.082,0.236,0.082
				c0.213,0,0.385-0.172,0.385-0.384C255.938,477.454,255.767,477.282,255.554,477.282z"/>
			<path id="XMLID_7132_" style="fill:#1D1D1B;" d="M254.029,482.564c-0.809,0.394-2.14,0.915-3.892,1.159
				c-0.688,0.095-1.354,0.13-1.968,0.13c-0.798,0-1.504-0.059-2.045-0.128c-0.618-0.078-1.1-0.173-1.396-0.24
				c0.071,0.225,0.157,0.448,0.26,0.665c0.002,0.006,0.005,0.012,0.007,0.016c0.012,0.025,0.025,0.052,0.037,0.077
				c0.012,0.025,0.025,0.05,0.037,0.073c0.004,0.007,0.007,0.013,0.01,0.019c0.174,0.327,0.382,0.628,0.62,0.889
				c0.826,0.904,1.668,1.047,1.676,1.048l0.013,0.002l0.012,0.005c0.008,0.003,0.754,0.244,1.889,0.244
				c1.116,0,2.212-0.225,3.256-0.67c0.773-0.396,1.505-0.997,1.868-1.532c0.28-0.415,0.483-0.857,0.602-1.317
				c0.064-0.244,0.114-0.636,0.085-1.048C254.876,482.109,254.516,482.327,254.029,482.564z"/>
			<path id="XMLID_7128_" style="fill:#1D1D1B;" d="M245.329,479.181c-0.024,0.034-0.374,0.531-0.652,1.293
				c-0.208,0.571-0.198,1.402-0.198,1.412v0.002c0,0.195,0.011,0.389,0.032,0.58c0,0.005,0,0.007,0.001,0.01
				c0.002,0.025,0.006,0.048,0.009,0.073c0.017,0.133,0.04,0.267,0.068,0.403c0.402,0.102,2.8,0.661,5.48,0.288
				c1.68-0.234,2.955-0.73,3.73-1.106c0.643-0.312,1.057-0.595,1.217-0.711c-0.159-0.59-0.598-1.516-1-2.093
				c-1.151-1.645-2.392-2.066-3.029-2.171c-0.243-0.04-0.438-0.063-0.713-0.063c-0.257,0-0.575,0.021-1.001,0.065
				c-0.426,0.044-0.902,0.156-1.453,0.342c-0.773,0.259-1.473,0.665-2.024,1.175l-0.019,0.017
				C245.696,478.774,245.525,478.932,245.329,479.181z M252.371,478.798c0.551,0,1,0.448,1,1c0,0.552-0.449,1.001-1,1.001
				c-0.552,0-1-0.449-1-1.001C251.371,479.247,251.819,478.798,252.371,478.798z M247.641,478.759c0.893,0,1.617,0.724,1.617,1.617
				c0,0.893-0.723,1.615-1.617,1.615c-0.892,0-1.616-0.723-1.616-1.615C246.025,479.483,246.749,478.759,247.641,478.759z"/>
		</g>
	</g>
</g>
</svg>
