<?xml version="1.0" standalone="no"?>
<!DOCTYPE svg PUBLIC "-//W3C//DTD SVG 20010904//EN"
 "http://www.w3.org/TR/2001/REC-SVG-20010904/DTD/svg10.dtd">
<svg version="1.0" xmlns="http://www.w3.org/2000/svg"
 width="1024.000000pt" height="1024.000000pt" viewBox="0 0 1024.000000 1024.000000"
 preserveAspectRatio="xMidYMid meet">

<g transform="translate(0.000000,1024.000000) scale(0.100000,-0.100000)"
fill="#000000" stroke="none">
<path d="M5540 9200 l0 -120 1655 0 1655 0 0 120 0 120 -1655 0 -1655 0 0
-120z m3173 33 c18 -17 19 -17 28 0 6 9 17 17 26 17 14 0 14 -2 -2 -20 -16
-18 -16 -21 -1 -44 19 -30 4 -45 -17 -16 -14 20 -14 20 -32 0 -10 -11 -22 -20
-27 -20 -14 0 -9 22 9 35 17 13 17 14 0 32 -30 34 -18 46 16 16z"/>
<path d="M5800 8270 l0 -670 1350 0 c893 0 1350 3 1350 10 0 7 -453 10 -1339
10 l-1338 0 -6 228 c-3 125 -4 422 -3 660 1 237 -1 432 -6 432 -4 0 -8 -301
-8 -670z"/>
<path d="M8250 8729 l0 -31 55 4 c30 1 55 1 55 -2 0 -6 -3 -8 -225 -143 -562
-341 -559 -340 -628 -269 -20 21 -37 48 -37 60 0 12 -11 29 -26 38 -35 24 -72
9 -98 -39 -17 -30 -49 -54 -156 -119 -74 -45 -187 -113 -250 -151 -103 -63
-120 -70 -167 -70 -49 0 -55 3 -123 64 -39 35 -75 66 -81 67 -5 2 -71 -31
-147 -74 -519 -293 -492 -277 -492 -285 0 -3 6 -14 14 -24 13 -18 22 -14 182
77 340 194 419 238 431 238 24 0 143 -113 154 -147 19 -58 98 -59 120 0 7 20
25 41 48 53 20 11 140 83 266 160 207 125 234 138 266 134 46 -6 99 -51 99
-83 0 -28 38 -67 66 -67 30 0 61 26 68 57 5 24 57 58 388 255 210 125 383 226
385 225 1 -2 -3 -27 -11 -55 -14 -57 -13 -62 19 -62 19 0 26 14 53 104 18 57
32 107 32 110 0 3 -58 6 -130 6 l-130 0 0 -31z"/>
<path d="M1270 6205 l0 -1875 208 -2 207 -3 -85 -56 c-399 -261 -674 -669
-771 -1145 -29 -145 -36 -413 -15 -567 71 -507 333 -931 756 -1222 224 -155
474 -251 757 -291 157 -22 413 -15 563 16 447 91 832 335 1095 695 91 125 89
121 57 143 -15 11 -74 46 -132 77 -58 32 -206 117 -330 188 -124 72 -270 156
-325 187 -99 56 -563 320 -640 365 -101 59 -165 55 814 52 l894 -2 -7 125 c-3
69 -17 181 -31 250 -14 69 -25 126 -25 128 0 1 290 2 645 2 l645 0 0 35 c0 80
-80 182 -167 215 -42 16 -78 20 -163 20 l-110 0 0 395 0 395 1128 0 1128 0 -5
42 c-5 33 -11 43 -26 46 -57 8 -65 13 -65 36 0 35 20 85 55 141 35 56 48 106
39 151 l-5 29 -90 -3 -89 -3 0 -145 0 -144 -2061 0 c-2007 0 -2063 1 -2137 19
-241 62 -550 67 -777 15 -116 -27 -132 -28 -437 -31 l-318 -4 0 1726 0 1725
2045 0 2045 0 0 75 0 75 -2135 0 -2135 0 0 -1875z m2260 -1905 c0 -36 0 -36
-50 -10 -58 30 -58 40 -1 40 50 0 51 -1 51 -30z"/>
<path d="M5922 7085 l-331 -165 -248 40 c-136 21 -270 44 -298 49 -58 12 6 47
-550 -300 l-200 -125 -313 -69 -314 -68 -111 -85 c-62 -47 -141 -108 -177
-137 -36 -28 -144 -113 -241 -188 l-177 -137 -343 -105 c-189 -58 -345 -108
-348 -110 -17 -18 33 -5 244 60 132 41 287 89 345 106 l106 31 219 168 c210
162 294 226 431 333 68 53 29 42 487 142 l209 45 106 68 c59 38 154 97 212
132 58 35 148 91 200 125 52 34 111 71 130 82 l35 22 300 -49 299 -48 150 75
c82 41 235 115 340 165 198 93 225 108 189 108 -11 0 -169 -74 -351 -165z"/>
<path d="M7180 6450 c0 -440 3 -800 8 -800 4 0 22 27 40 60 18 33 55 90 83
127 43 56 51 73 51 112 1 25 0 328 -1 674 l-1 627 -90 0 -90 0 0 -800z"/>
<path d="M2020 7020 l0 -150 150 0 150 0 0 150 0 150 -150 0 -150 0 0 -150z"/>
<path d="M7988 7101 c-41 -14 -107 -53 -112 -68 -7 -17 81 -83 180 -134 l78
-41 -2 -71 c-2 -50 1 -78 11 -91 13 -18 15 -16 38 25 29 52 65 63 99 29 25
-25 34 -20 60 30 24 46 26 99 5 126 -8 10 -15 37 -15 60 0 82 -88 136 -230
141 -47 1 -97 -1 -112 -6z"/>
<path d="M7415 4396 c-2 -6 -13 -191 -25 -411 -11 -220 -27 -515 -35 -655 -19
-323 -19 -437 0 -633 22 -227 85 -729 151 -1199 l58 -408 209 0 209 0 -7 333
c-4 182 -7 600 -8 927 l-2 595 33 310 c17 171 37 360 43 420 12 117 19 146 19
74 0 -24 5 -244 10 -489 13 -514 24 -642 150 -1794 22 -203 40 -375 40 -382 0
-11 30 -14 149 -14 81 0 168 3 193 6 l45 6 7 307 c3 168 8 587 12 931 3 384
13 776 24 1015 11 215 27 542 36 728 9 186 15 340 12 342 -3 3 -29 0 -59 -5
-265 -50 -849 -53 -1178 -6 -58 9 -84 9 -86 2z"/>
<path d="M6386 3885 c-57 -53 -119 -233 -151 -440 -26 -165 -30 -444 -11 -635
16 -156 88 -696 105 -787 5 -23 6 -45 3 -48 -3 -3 -20 60 -38 140 -53 236
-131 518 -173 625 -98 246 -291 520 -366 520 -41 0 -50 -25 -48 -134 2 -171
42 -299 269 -874 57 -145 104 -267 104 -273 0 -5 -45 -9 -100 -9 l-100 0 0
-584 c0 -486 2 -585 14 -595 23 -19 141 -39 301 -52 240 -18 643 5 721 42 l29
14 3 588 2 587 -106 0 c-81 0 -105 3 -101 13 3 6 35 78 71 160 93 211 180 428
209 527 89 295 146 690 109 758 -60 108 -259 -200 -425 -658 -60 -164 -99
-312 -152 -576 -24 -119 -47 -219 -51 -222 -3 -4 -4 13 0 38 3 25 23 194 43
375 36 316 37 344 37 660 0 350 -14 531 -54 703 -28 116 -53 162 -89 162 -16
0 -39 -11 -55 -25z"/>
<path d="M7459 956 c-66 -18 -137 -62 -196 -124 -29 -30 -53 -58 -53 -63 0 -5
311 -8 690 -6 l690 1 0 66 0 65 -62 0 c-50 0 -82 8 -154 38 -107 43 -160 47
-255 18 -64 -20 -163 -81 -173 -107 -10 -26 -26 -15 -26 19 l0 32 -67 0 c-56
0 -83 7 -155 38 -95 40 -153 46 -239 23z"/>
</g>
</svg>
