<?xml version="1.0" standalone="no"?>
<!DOCTYPE svg PUBLIC "-//W3C//DTD SVG 20010904//EN"
 "http://www.w3.org/TR/2001/REC-SVG-20010904/DTD/svg10.dtd">
<svg version="1.0" xmlns="http://www.w3.org/2000/svg"
 width="1104.000000pt" height="944.000000pt" viewBox="0 0 1104.000000 944.000000"
 preserveAspectRatio="xMidYMid meet">

<g transform="translate(0.000000,944.000000) scale(0.100000,-0.100000)"
fill="#000000" stroke="none">
<path d="M6 9433 c-3 -4 -6 -2124 -6 -4713 l0 -4707 178 -7 c97 -3 2581 -6
5520 -5 l5342 1 -2 4716 -3 4717 -5512 2 c-3031 1 -5514 -1 -5517 -4z m9114
-1161 l25 -10 -30 -7 c-16 -4 -35 -8 -42 -10 -7 -2 -15 1 -19 7 -4 6 -3 8 2 5
6 -3 16 -1 24 4 12 7 10 8 -7 6 -11 -2 -29 -9 -40 -17 -16 -14 -17 -13 -5 2
10 12 10 18 1 23 -8 6 -8 9 1 15 12 8 39 2 90 -18z m-141 -21 c9 -6 10 -11 2
-15 -6 -4 -11 -2 -11 5 0 8 -6 6 -18 -4 -22 -20 -48 -22 -58 -5 -5 8 -2 9 9 5
10 -4 17 -1 17 6 0 8 4 6 10 -3 8 -13 10 -12 10 3 0 18 17 22 39 8z m98 -27
c-3 -3 -12 -4 -19 -1 -8 3 -5 6 6 6 11 1 17 -2 13 -5z m-197 -24 c0 -5 -8 -10
-17 -10 -15 0 -16 2 -3 10 19 12 20 12 20 0z m-80 -20 c0 -5 -2 -10 -4 -10 -3
0 -8 5 -11 10 -3 6 -1 10 4 10 6 0 11 -4 11 -10z m34 -5 c-4 -8 -1 -15 5 -15
6 0 11 3 11 8 0 4 11 7 25 7 29 0 33 -10 9 -19 -9 -4 -14 -9 -11 -12 3 -4 0
-13 -8 -21 -17 -16 -39 -8 -28 10 4 7 -1 6 -10 -2 -10 -8 -21 -10 -25 -6 -4 4
-1 10 6 12 6 3 9 9 6 14 -3 6 0 16 6 24 16 19 21 19 14 0z m-74 -5 c-8 -5 -19
-10 -25 -10 -5 0 -3 5 5 10 8 5 20 10 25 10 6 0 3 -5 -5 -10z m675 -30 c32
-12 42 -19 28 -20 -13 0 -37 9 -55 20 -41 25 -36 25 27 0z m-510 -80 c3 -5 1
-10 -4 -10 -6 0 -11 5 -11 10 0 6 2 10 4 10 3 0 8 -4 11 -10z m125 -10 c20 -6
16 -8 -23 -9 -30 -1 -46 3 -42 9 7 11 29 11 65 0z m610 0 c0 -5 -4 -10 -10
-10 -5 0 -10 5 -10 10 0 6 5 10 10 10 6 0 10 -4 10 -10z m-1065 -68 c-3 -3
-11 0 -18 7 -9 10 -8 11 6 5 10 -3 15 -9 12 -12z m35 -12 c0 -5 -2 -10 -4 -10
-3 0 -8 5 -11 10 -3 6 -1 10 4 10 6 0 11 -4 11 -10z m240 -10 c0 -5 -2 -10 -4
-10 -3 0 -8 5 -11 10 -3 6 -1 10 4 10 6 0 11 -4 11 -10z m-180 -12 c0 -11 -28
-10 -35 1 -3 6 4 9 15 8 11 -1 20 -5 20 -9z m215 -6 c-3 -3 -11 0 -18 7 -9 10
-8 11 6 5 10 -3 15 -9 12 -12z m123 -17 c0 -14 -5 -24 -10 -23 -5 2 -9 7 -9
11 1 4 1 14 1 22 0 8 4 15 9 15 5 0 9 -11 9 -25z m-269 -12 c0 -11 -3 -13 -6
-5 -2 6 -10 9 -15 6 -7 -4 -8 -2 -4 4 11 18 26 14 25 -5z m51 7 c0 -5 -4 -10
-9 -10 -6 0 -13 5 -16 10 -3 6 1 10 9 10 9 0 16 -4 16 -10z m30 -20 c-23 -14
-4 -23 22 -10 19 10 21 10 11 -1 -9 -9 -10 -16 -2 -26 8 -9 8 -13 0 -13 -6 0
-11 5 -11 10 0 6 -7 10 -16 10 -8 0 -25 5 -37 12 l-22 12 25 7 c36 10 47 10
30 -1z m490 0 c-8 -5 -19 -10 -25 -10 -5 0 -3 5 5 10 8 5 20 10 25 10 6 0 3
-5 -5 -10z m-284 -25 c9 -8 11 -15 5 -15 -6 0 -9 -13 -7 -29 2 -21 -1 -28 -10
-24 -8 3 -12 16 -10 35 3 23 -1 32 -18 38 -21 9 -21 9 2 9 13 1 30 -6 38 -14z
m239 5 c-3 -5 -11 -10 -16 -10 -6 0 -7 5 -4 10 3 6 11 10 16 10 6 0 7 -4 4
-10z m-271 -25 c-4 -8 -8 -15 -10 -15 -2 0 -4 7 -4 15 0 8 4 15 10 15 5 0 7
-7 4 -15z m-39 -45 c3 -6 -1 -7 -9 -4 -18 7 -21 14 -7 14 6 0 13 -4 16 -10z
m30 -10 c3 -5 1 -10 -4 -10 -6 0 -11 5 -11 10 0 6 2 10 4 10 3 0 8 -4 11 -10z
m-3115 -110 c13 -8 12 -10 -3 -10 -11 0 -17 -5 -14 -12 2 -7 13 -11 23 -9 47
8 137 -10 121 -25 -2 -3 -22 2 -42 10 -20 9 -42 13 -49 9 -6 -4 -14 -8 -18 -9
-5 -1 -11 -2 -15 -3 -5 -1 -2 -5 5 -10 11 -7 11 -11 -2 -24 -20 -20 -36 -17
-65 12 -17 17 -20 26 -12 34 8 8 11 7 11 -5 0 -8 6 -21 14 -27 10 -9 17 -7 27
6 12 15 12 16 -3 10 -10 -3 -20 -2 -23 3 -4 6 -1 10 4 10 6 0 11 5 11 11 0 5
-4 8 -8 5 -4 -2 -14 0 -22 5 -13 8 -13 10 0 19 19 12 41 12 60 0z m-145 -40
c-3 -5 -12 -10 -18 -10 -7 0 -6 4 3 10 19 12 23 12 15 0z m-61 -56 c3 -8 2
-12 -4 -9 -6 3 -10 10 -10 16 0 14 7 11 14 -7z m297 -22 c-7 -2 -18 1 -23 6
-8 8 -4 9 13 5 13 -4 18 -8 10 -11z m-83 -9 c-2 -10 3 -17 10 -15 6 1 12 -7
12 -19 0 -11 -5 -19 -11 -17 -6 2 -11 8 -11 13 0 6 -4 16 -10 23 -6 6 -7 12
-2 13 5 0 0 4 -11 9 -19 8 -19 9 3 9 16 1 22 -4 20 -16z m-330 -7 c-27 -20
-22 -25 25 -19 39 4 41 3 23 -11 -14 -11 -22 -13 -27 -5 -3 6 -8 2 -12 -10 -5
-21 -27 -30 -27 -10 0 5 -4 7 -10 4 -6 -4 -5 -13 3 -25 15 -26 103 -30 93 -5
-3 8 -1 15 4 15 6 0 10 -9 10 -19 0 -11 6 -22 13 -25 6 -3 -7 -4 -30 -2 -37 3
-43 0 -43 -17 0 -19 -1 -19 -20 3 -17 19 -20 20 -20 6 0 -9 -4 -14 -10 -11 -6
4 -8 -6 -6 -24 2 -17 -1 -28 -5 -25 -5 3 -9 3 -9 0 0 -2 -3 -13 -6 -23 -4 -13
-3 -14 4 -5 7 11 14 8 30 -15 31 -40 54 -63 61 -59 3 2 7 -8 7 -22 1 -15 -1
-21 -3 -14 -3 6 -10 9 -16 5 -7 -5 -19 -8 -27 -9 -44 -3 -50 -5 -50 -17 0 -7
-9 -18 -21 -25 -17 -11 -26 -10 -55 7 -19 12 -37 21 -40 21 -2 0 -3 -22 -1
-49 1 -27 -1 -47 -6 -44 -5 3 -3 -4 5 -16 7 -12 19 -21 27 -21 8 0 11 -3 8 -7
-6 -5 -45 -7 -88 -4 -5 1 -7 6 -3 13 5 8 2 9 -9 5 -16 -6 -21 7 -20 50 1 7 -4
10 -9 7 -6 -4 -7 2 -3 16 5 17 4 21 -6 15 -8 -4 -3 2 10 13 27 22 21 42 -12
43 l-22 0 23 9 c12 5 28 7 36 4 9 -3 21 5 31 20 12 18 26 26 46 26 34 0 50 27
28 44 -8 6 -14 24 -13 39 1 15 -3 30 -7 33 -5 3 -9 1 -9 -5 0 -7 -8 -7 -25 1
-23 10 -23 12 -7 24 9 7 21 10 26 7 5 -4 6 -1 2 6 -4 6 -12 9 -17 6 -5 -4 -9
5 -9 19 0 24 -2 25 -27 15 -35 -13 -18 3 20 19 16 7 26 8 23 3 -4 -5 0 -12 6
-14 10 -4 10 -7 0 -15 -11 -7 -11 -10 3 -15 9 -4 13 -3 10 3 -3 6 -1 10 4 10
6 0 11 -6 11 -14 0 -8 7 -17 16 -20 23 -9 34 -7 34 5 0 6 -7 9 -15 6 -8 -4
-17 -1 -21 5 -4 6 -3 8 4 4 5 -3 12 0 15 6 3 10 7 10 21 -1 19 -16 28 -10 33
20 2 15 -1 20 -12 16 -8 -4 -17 -1 -21 5 -5 7 -2 8 6 3 10 -6 12 -4 7 8 -3 9
-3 16 1 15 13 -4 52 13 52 23 0 5 8 9 18 9 16 -1 16 -1 0 -14z m622 4 c12 -8
10 -9 -7 -7 -12 2 -26 6 -29 10 -11 11 19 8 36 -3z m84 -25 c34 -14 49 -35 25
-35 -5 0 -7 4 -4 10 3 6 -1 7 -9 4 -9 -3 -27 4 -42 15 -31 25 -21 27 30 6z
m2446 -13 c0 -24 -99 -60 -111 -40 -14 22 -11 24 44 45 56 22 67 21 67 -5z
m-3250 -13 c0 -14 -6 -19 -27 -18 -26 2 -27 2 -4 6 19 4 21 7 10 14 -11 7 -11
9 -1 9 7 0 10 5 6 12 -4 7 -3 8 4 4 7 -4 12 -16 12 -27z m213 17 c4 -10 0 -12
-14 -9 -10 3 -16 9 -13 14 8 13 21 11 27 -5z m178 -25 c6 10 9 10 9 2 0 -7 -6
-18 -13 -25 -8 -6 -12 -22 -9 -34 3 -19 1 -22 -17 -17 -12 3 -21 9 -21 14 0 5
7 6 15 3 8 -4 15 -1 15 5 0 6 -4 11 -8 11 -5 0 -9 7 -9 15 0 8 4 12 9 9 4 -3
8 3 9 13 0 12 2 14 6 4 5 -11 7 -11 14 0z m479 5 c0 -3 -4 -8 -10 -11 -5 -3
-10 -1 -10 4 0 6 5 11 10 11 6 0 10 -2 10 -4z m-60 -10 c0 -11 -19 -15 -25 -6
-3 5 1 10 9 10 9 0 16 -2 16 -4z m-775 -16 c3 -5 2 -10 -4 -10 -5 0 -13 5 -16
10 -3 6 -2 10 4 10 5 0 13 -4 16 -10z m753 -16 c1 -1 -5 -7 -15 -15 -11 -9
-14 -10 -9 -1 4 6 2 12 -3 12 -6 0 -11 7 -11 16 0 14 3 15 18 3 9 -7 18 -14
20 -15z m2286 0 c9 -23 1 -30 -51 -48 -59 -20 -63 -20 -63 3 0 12 15 25 48 39
57 26 58 26 66 6z m-2104 2 c0 -2 -7 -6 -15 -10 -8 -3 -15 -1 -15 4 0 6 7 10
15 10 8 0 15 -2 15 -4z m-573 -38 c-3 -7 -5 -2 -5 12 0 14 2 19 5 13 2 -7 2
-19 0 -25z m613 7 c-6 -7 -19 -11 -30 -8 -15 4 -16 8 -7 18 16 17 51 7 37 -10z
m-1238 -7 c-7 -7 -12 -8 -12 -2 0 14 12 26 19 19 2 -3 -1 -11 -7 -17z m965 5
c0 -10 -5 -25 -11 -33 -6 -8 -1 -7 11 4 24 20 28 17 35 -29 3 -16 11 -20 38
-20 19 1 45 4 58 9 18 6 22 4 22 -14 0 -12 5 -18 10 -15 12 8 13 -25 1 -44 -5
-7 -13 -11 -19 -7 -13 8 -62 -14 -62 -27 0 -6 3 -7 7 -4 3 4 12 2 19 -4 10 -8
11 -16 3 -30 -12 -24 -37 -25 -47 -1 -8 20 -32 28 -32 10 0 -6 -3 -8 -7 -5 -3
4 -14 0 -24 -9 -13 -12 -19 -12 -25 -3 -5 8 -3 10 6 4 9 -5 11 -4 6 4 -4 6
-12 9 -17 5 -5 -3 -7 -9 -4 -14 9 -14 -29 -17 -55 -3 -14 7 -19 13 -12 13 6 0
12 5 12 10 0 6 -7 10 -15 10 -17 0 -20 16 -5 25 6 4 7 11 4 17 -4 6 -2 8 4 4
17 -11 22 8 11 47 -6 24 -16 37 -27 37 -15 0 -15 -2 -2 -11 13 -9 13 -10 0 -6
-8 2 -17 12 -18 22 -3 12 0 15 10 9 11 -6 11 -5 0 8 -14 17 -7 25 18 23 8 0
14 -6 13 -11 -1 -6 4 -11 12 -11 8 0 12 3 10 6 -2 4 4 15 12 26 15 20 15 20
10 -2 -3 -13 -2 -23 1 -23 13 0 37 19 38 30 3 26 11 28 11 3z m-300 -8 c0 -8
-4 -12 -9 -9 -5 3 -6 10 -3 15 9 13 12 11 12 -6z m350 -17 c-3 -8 -6 -5 -6 6
-1 11 2 17 5 13 3 -3 4 -12 1 -19z m53 12 c0 -5 -6 -10 -14 -10 -8 0 -18 5
-21 10 -3 6 3 10 14 10 12 0 21 -4 21 -10z m100 3 c0 -10 -20 -40 -20 -31 0 3
-3 13 -6 22 -4 11 -1 16 10 16 9 0 16 -3 16 -7z m-672 -14 c13 0 22 -5 22 -14
0 -8 7 -18 16 -23 11 -6 13 -11 5 -16 -21 -13 -12 -28 13 -22 14 3 28 2 31 -4
7 -12 -43 -65 -53 -55 -4 4 2 13 12 21 20 14 16 18 -19 15 -17 -2 -17 0 -5 8
13 9 13 11 1 11 -12 0 -12 3 -3 12 17 17 15 33 -3 18 -12 -10 -15 -10 -15 4 0
9 -7 16 -16 16 -8 0 -12 5 -8 11 4 8 0 9 -15 4 -16 -5 -21 -2 -21 10 0 13 5
15 18 10 9 -4 27 -7 40 -6z m132 -5 c0 -2 -12 -4 -26 -4 -14 0 -23 4 -20 9 6
8 46 4 46 -5z m-744 -9 c-11 -8 -25 -15 -30 -15 -6 1 0 7 14 15 32 19 40 18
16 0z m3241 -18 c-3 -7 -26 -22 -52 -32 -40 -15 -49 -15 -56 -4 -11 19 6 35
56 53 41 14 62 8 52 -17z m-2982 15 c6 -4 10 -14 10 -22 0 -8 10 -20 23 -26
20 -10 21 -13 7 -24 -12 -10 -15 -10 -15 4 0 9 -8 16 -19 16 -13 0 -20 9 -23
30 -5 31 -1 35 17 22z m1098 -14 c-4 -21 -3 -22 10 -5 15 18 53 24 42 7 -4 -6
-10 -8 -14 -6 -4 3 -8 -8 -8 -24 0 -18 6 -30 15 -32 13 -3 13 -5 -1 -20 -22
-21 -22 -38 0 -38 9 0 13 -3 9 -7 -4 -4 -19 -7 -34 -8 -23 0 -27 -4 -27 -30 0
-19 5 -29 13 -27 6 1 12 -3 12 -9 0 -16 27 15 31 36 5 24 57 39 78 22 11 -9
13 -9 8 0 -4 6 -3 14 3 18 17 10 11 25 -9 25 -10 0 -21 7 -25 15 -5 15 7 19
51 15 16 -1 21 3 18 12 -3 8 2 14 12 14 10 1 27 5 38 9 18 7 18 6 -2 -12 -13
-11 -23 -28 -23 -36 0 -11 -6 -14 -17 -10 -14 5 -16 3 -6 -7 13 -14 48 -6 38
10 -3 5 -1 10 4 10 14 0 14 -17 1 -25 -6 -4 -7 -11 -4 -17 4 -6 2 -8 -4 -4 -6
3 -13 2 -16 -3 -4 -5 -2 -12 4 -16 5 -3 10 -11 10 -16 0 -6 -5 -7 -11 -3 -7 4
-7 -1 1 -15 9 -18 9 -26 -2 -38 -7 -9 -13 -26 -13 -37 0 -19 -5 -21 -57 -20
-33 1 -58 -3 -58 -9 0 -5 -6 -4 -14 2 -18 15 -34 -5 -17 -22 15 -15 14 -30 -1
-20 -19 11 -37 12 -44 2 -7 -12 -34 -11 -34 1 0 6 7 10 16 8 9 -2 18 4 19 13
2 14 -2 14 -32 4 -20 -7 -40 -20 -45 -29 -19 -33 -26 -20 -19 36 1 3 10 4 21
1 11 -3 20 0 20 6 0 6 -11 11 -25 11 -14 0 -28 0 -32 0 -5 0 -9 -9 -9 -20 -3
-44 -6 -55 -11 -42 -6 16 -33 16 -33 -1 0 -7 5 -18 12 -25 9 -9 7 -12 -12 -12
-19 0 -21 -3 -11 -9 8 -5 20 -7 28 -4 7 3 13 0 13 -6 0 -6 -7 -11 -15 -11 -14
0 -19 -11 -16 -36 1 -7 -9 -9 -25 -6 -17 3 -25 1 -20 -6 4 -6 -2 -8 -16 -4
-18 5 -19 7 -6 10 23 5 11 32 -15 32 -11 0 -18 3 -14 6 10 10 58 -5 52 -16 -3
-6 1 -10 9 -10 14 0 15 27 1 49 -3 5 -1 12 4 16 14 8 3 32 -15 32 -9 0 -13 -6
-9 -15 3 -10 0 -12 -10 -8 -9 3 -15 0 -15 -10 0 -8 5 -12 10 -9 6 3 10 2 10
-4 0 -6 -12 -8 -30 -4 -25 4 -30 2 -30 -13 0 -16 -2 -17 -10 -4 -8 13 -10 13
-10 -2 0 -9 -7 -24 -16 -32 -8 -9 -11 -16 -5 -16 6 0 11 -6 11 -14 0 -14 -26
-14 -92 -1 -15 2 -16 0 -7 -17 7 -13 7 -18 1 -14 -6 3 -13 2 -17 -4 -4 -6 -11
-8 -16 -5 -5 3 -6 0 -3 -8 3 -8 0 -18 -5 -22 -6 -3 -9 -10 -6 -15 3 -4 -2 -10
-10 -13 -8 -4 -12 -1 -9 6 2 7 -5 18 -17 25 -12 8 -18 9 -15 4 10 -17 -18 -20
-36 -4 -13 10 -18 11 -18 3 0 -7 -4 -10 -9 -6 -5 3 -12 -4 -16 -15 -5 -16 -12
-19 -33 -13 -35 8 -44 23 -26 40 8 8 14 21 14 29 0 8 5 12 10 9 6 -3 10 1 10
10 0 21 -30 16 -51 -9 -13 -16 -17 -17 -24 -5 -5 8 -5 11 0 7 4 -4 18 6 32 23
14 16 30 26 36 22 6 -4 8 0 4 10 -4 11 -2 14 9 10 8 -3 14 1 14 8 0 10 3 10
12 1 16 -16 42 -16 32 0 -5 7 -2 9 9 5 12 -4 14 -2 10 10 -4 11 -2 14 5 9 8
-5 12 0 12 15 0 21 0 21 20 -2 11 -13 18 -17 15 -9 -4 11 2 15 24 15 20 0 26
-3 20 -11 -9 -12 15 -53 25 -43 6 6 15 51 18 86 1 7 5 10 9 7 4 -2 10 0 14 6
3 5 1 10 -4 10 -6 0 -11 5 -11 10 0 6 7 10 15 10 13 0 20 19 16 43 -1 4 8 3
19 -3 17 -9 19 -8 13 7 -4 10 -14 23 -22 30 -12 9 -7 9 20 0 20 -7 43 -18 52
-25 8 -7 37 -13 66 -13 28 -1 51 -6 51 -11 0 -6 -11 -8 -25 -6 -27 6 -38 -4
-40 -36 -2 -17 -1 -17 10 -3 6 9 18 17 26 19 8 2 29 13 48 25 26 17 38 20 48
11 10 -8 13 -6 13 6 0 9 5 16 11 16 5 0 8 -4 4 -9 -8 -13 8 -21 24 -12 10 6 9
11 -3 23 -8 9 -12 18 -9 22 4 3 -3 6 -15 6 -21 0 -38 31 -27 50 12 20 -13 9
-29 -12 -10 -13 -6 -2 8 23 14 26 23 49 20 52 -3 3 6 13 21 23 20 13 23 19 13
25 -10 7 -10 9 0 9 22 0 12 20 -10 20 -22 1 -22 1 -4 12 15 8 22 7 30 -4 10
-13 14 -12 30 4 25 23 25 23 19 -4z m-1294 -19 c26 -35 25 -37 -15 -43 -16 -2
-22 -1 -14 1 8 3 20 10 25 15 7 8 6 9 -2 4 -18 -10 -39 4 -22 14 10 7 10 11 0
24 -8 9 -9 16 -4 16 5 0 19 -14 32 -31z m677 14 c14 -34 9 -58 -19 -82 -15
-13 -30 -21 -33 -18 -3 3 4 10 15 17 17 9 19 15 11 30 -7 12 -7 21 0 25 5 3
10 1 10 -6 0 -7 3 -10 6 -6 3 3 2 12 -2 19 -12 18 -14 38 -4 38 4 0 11 -8 16
-17z m108 1 c3 -8 2 -12 -4 -9 -6 3 -10 10 -10 16 0 14 7 11 14 -7z m58 -16
c6 -13 12 -31 13 -41 1 -11 8 -23 16 -29 11 -7 11 -11 2 -15 -18 -7 -16 -23 3
-23 8 0 12 -4 9 -10 -11 -18 -53 19 -49 43 l5 22 -10 -22 c-6 -13 -13 -23 -16
-23 -4 0 -3 5 1 11 4 8 -1 9 -15 4 -20 -6 -21 -5 -9 14 9 15 15 17 21 8 6 -9
7 -8 4 3 -2 8 -12 15 -23 15 -11 0 -20 8 -21 20 -3 19 -2 19 5 1 8 -18 9 -18
26 -1 9 10 15 24 12 31 -9 23 12 16 26 -8z m632 16 c18 -7 12 -24 -8 -24 -7 0
-13 7 -13 15 0 17 0 17 21 9z m-1624 -14 c0 -5 -5 -10 -11 -10 -5 0 -7 5 -4
10 3 6 8 10 11 10 2 0 4 -4 4 -10z m77 -16 c-3 -3 -12 -4 -19 -1 -8 3 -5 6 6
6 11 1 17 -2 13 -5z m1470 -16 c-3 -8 -6 -5 -6 6 -1 11 2 17 5 13 3 -3 4 -12
1 -19z m-1583 -3 c-18 -14 -18 -14 6 -16 14 -1 32 0 39 1 13 1 13 -1 1 -15 -9
-11 -16 -13 -24 -5 -5 5 -18 10 -29 10 -14 0 -17 -5 -12 -20 4 -11 2 -20 -4
-20 -6 0 -11 5 -11 10 0 6 -9 10 -20 10 -11 0 -20 5 -20 11 0 7 9 9 21 6 15
-4 23 1 31 19 6 13 18 24 27 24 11 0 10 -3 -5 -15z m1771 -3 c-3 -3 -11 0 -18
7 -9 10 -8 11 6 5 10 -3 15 -9 12 -12z m1423 -5 c2 -10 -4 -20 -15 -23 -10 -3
-33 -13 -51 -21 -64 -28 -73 13 -9 45 48 24 70 24 75 -1z m-3073 4 c5 -1 4 -6
-3 -13 -7 -7 -12 -20 -12 -31 0 -10 -4 -15 -10 -12 -5 3 -10 1 -10 -4 0 -6 -5
-11 -11 -11 -6 0 -8 9 -4 21 5 16 4 19 -5 14 -7 -5 -11 -4 -8 1 3 5 8 17 11
26 3 9 14 15 24 13 10 -2 22 -4 28 -4z m1730 -30 l30 -11 -35 6 c-42 8 -50 12
-50 26 0 7 4 7 13 1 6 -6 26 -15 42 -22z m-942 -9 c-3 -7 2 -19 12 -26 13 -9
15 -15 6 -20 -6 -4 -8 -13 -4 -19 8 -13 -28 12 -39 28 -4 6 -8 1 -8 -10 0 -17
-2 -17 -10 -5 -5 8 -10 11 -10 5 0 -14 -20 17 -20 33 0 14 30 28 59 28 12 0
17 -5 14 -14z m32 -2 c3 -5 1 -10 -4 -10 -6 0 -11 5 -11 10 0 6 2 10 4 10 3 0
8 -4 11 -10z m-188 -6 c-3 -3 -12 -4 -19 -1 -8 3 -5 6 6 6 11 1 17 -2 13 -5z
m-934 -17 c18 4 19 3 7 -6 -23 -16 -40 -13 -39 7 0 9 3 12 5 6 3 -7 15 -10 27
-7z m3192 -13 c0 -13 -14 -23 -47 -36 -43 -16 -47 -16 -60 -1 -8 10 -9 18 -3
20 6 2 28 12 50 22 47 22 60 21 60 -5z m-1057 7 c10 -6 7 -10 -11 -13 -18 -4
-24 -1 -20 9 6 15 13 16 31 4z m47 -21 c3 -5 2 -10 -4 -10 -5 0 -13 5 -16 10
-3 6 -2 10 4 10 5 0 13 -4 16 -10z m-1793 -32 c-7 -7 -8 -17 -2 -29 7 -12 6
-20 0 -24 -6 -4 -9 -3 -8 2 1 4 -2 18 -6 31 -5 15 -3 29 5 39 9 11 14 12 17 3
2 -6 -1 -17 -6 -22z m403 12 c3 -6 -1 -7 -9 -4 -18 7 -21 14 -7 14 6 0 13 -4
16 -10z m1355 4 c0 -8 -19 -13 -24 -6 -3 5 1 9 9 9 8 0 15 -2 15 -3z m105 -6
c31 -14 32 -22 0 -36 -21 -10 -23 -9 -18 5 5 12 2 15 -8 11 -8 -3 -23 -2 -34
3 -19 7 -19 8 3 8 12 1 22 6 22 11 0 13 3 13 35 -2z m-2415 -25 c-12 -8 -24
-12 -27 -9 -3 3 2 8 11 12 9 3 13 10 10 15 -3 5 2 6 11 3 14 -6 13 -9 -5 -21z
m1045 17 c3 -6 -1 -7 -9 -4 -18 7 -21 14 -7 14 6 0 13 -4 16 -10z m2140 -24
c0 -12 -16 -24 -49 -37 -53 -20 -66 -18 -66 10 0 12 15 22 48 33 55 19 67 18
67 -6z m-2881 -33 c-5 -17 -5 -17 9 0 10 12 17 14 22 8 3 -6 1 -11 -5 -11 -8
0 -7 -6 1 -21 8 -15 8 -19 0 -15 -6 4 -11 1 -11 -6 0 -7 -9 -2 -19 12 -11 13
-17 28 -15 32 2 3 0 9 -6 13 -5 3 -10 1 -10 -6 0 -7 -3 -10 -6 -7 -3 3 0 15 7
26 10 17 15 18 26 7 7 -8 10 -22 7 -32z m-257 14 c7 0 10 -4 7 -9 -3 -4 -15
-3 -27 3 -30 16 -37 24 -12 14 11 -4 25 -8 32 -8z m458 -4 c-2 -10 -4 -25 -5
-33 -1 -10 -4 -9 -9 5 -9 22 -4 45 9 45 5 0 7 -8 5 -17z m545 7 c0 -5 -2 -10
-4 -10 -3 0 -8 5 -11 10 -3 6 -1 10 4 10 6 0 11 -4 11 -10z m-2130 -60 c0 -3
-4 -12 -9 -20 -8 -12 -17 -11 -60 9 -42 20 -49 27 -41 42 10 17 13 17 60 -4
27 -12 50 -24 50 -27z m1201 28 c-13 -4 -33 -6 -44 -2 -30 9 -3 21 35 16 31
-5 32 -5 9 -14z m254 4 c-3 -3 -11 0 -18 7 -9 10 -8 11 6 5 10 -3 15 -9 12
-12z m-2356 -6 c10 -12 3 -20 -34 -46 -69 -47 -95 -17 -27 32 44 32 46 32 61
14z m2231 4 c0 -5 -2 -10 -4 -10 -3 0 -8 5 -11 10 -3 6 -1 10 4 10 6 0 11 -4
11 -10z m1970 -46 c-82 -38 -86 -39 -68 -20 7 8 15 14 18 14 22 -1 30 5 28 20
-3 14 3 16 36 14 25 -3 36 0 32 7 -5 7 -1 8 10 4 11 -4 -5 -16 -56 -39z m788
25 c-2 -15 -17 -27 -51 -39 -46 -18 -48 -18 -58 1 -8 16 -5 21 18 29 15 6 37
14 48 19 33 16 47 13 43 -10z m-2469 -15 c-14 -13 -16 -13 -16 0 0 8 4 13 9
10 4 -3 8 0 8 7 0 7 3 9 7 5 4 -3 0 -13 -8 -22z m716 -7 c-4 -8 -14 -18 -22
-21 -13 -6 -13 -3 1 21 l17 28 -25 -27 c-21 -24 -25 -25 -23 -8 1 10 3 17 5
15 3 -2 11 3 20 11 17 18 36 5 27 -19z m-911 -22 c-4 -8 -8 -15 -10 -15 -2 0
-4 7 -4 15 0 8 4 15 10 15 5 0 7 -7 4 -15z m167 -8 c-13 -13 -26 -3 -16 12 3
6 11 8 17 5 6 -4 6 -10 -1 -17z m-1466 -9 c48 -23 49 -26 36 -46 -12 -19 -101
25 -101 50 0 23 10 23 65 -4z m1235 10 c0 -4 -9 -8 -20 -8 -11 0 -20 4 -20 9
0 6 9 9 20 8 11 -1 20 -5 20 -9z m2558 -19 c4 -21 -99 -64 -110 -46 -13 20 -3
31 43 49 49 19 63 18 67 -3z m-2515 -2 c4 3 7 1 7 -6 0 -7 4 -10 9 -7 5 3 14
-1 21 -9 11 -13 8 -13 -19 -4 -17 6 -34 15 -37 20 -3 5 -10 6 -16 3 -7 -4 -8
-2 -4 5 6 8 12 9 20 2 7 -6 16 -8 19 -4z m-2453 -31 c0 -15 -69 -66 -88 -66
-19 0 -14 25 11 47 45 41 77 49 77 19z m4153 -9 c-49 -24 -65 -29 -75 -19 -9
9 -7 12 13 13 13 0 42 9 64 19 66 31 65 21 -2 -13z m-252 -10 c-10 -9 -11 -8
-5 6 3 10 9 15 12 12 3 -3 0 -11 -7 -18z m-2538 -24 c42 -21 35 -43 -14 -43
-26 0 -38 4 -34 11 4 6 -2 13 -14 16 -21 5 -28 23 -14 36 8 8 36 1 76 -20z
m1267 17 c8 -5 11 -10 5 -10 -5 0 -17 5 -25 10 -8 5 -10 10 -5 10 6 0 17 -5
25 -10z m2163 -9 c4 -15 -5 -23 -49 -39 -56 -20 -64 -19 -64 9 0 11 14 22 43
32 56 21 64 20 70 -2z m-2093 -13 c0 -13 -3 -18 -8 -12 -4 6 -16 16 -27 22
-19 11 -18 11 8 12 21 0 27 -5 27 -22z m288 13 c2 -1 0 -6 -3 -11 -5 -8 -11
-7 -21 1 -11 9 -14 9 -14 -1 0 -8 -3 -11 -6 -7 -3 3 -3 10 0 15 5 8 18 9 44 3z
m183 -11 c6 0 7 -5 4 -10 -7 -11 -65 -10 -65 1 0 10 23 18 38 13 8 -2 18 -4
23 -4z m-433 -25 c-3 -3 -9 2 -12 12 -6 14 -5 15 5 6 7 -7 10 -15 7 -18z m-57
-6 c23 -11 39 -23 36 -25 -3 -3 -27 6 -54 20 -26 14 -42 25 -35 26 7 0 31 -9
53 -21z m1359 17 c0 -2 -7 -7 -16 -10 -8 -3 -12 -2 -9 4 6 10 25 14 25 6z
m-1282 -36 c-7 -11 -17 -20 -22 -20 -5 0 -1 9 9 20 10 11 20 20 22 20 2 0 -2
-9 -9 -20z m420 12 c13 -4 23 -11 22 -16 -1 -5 4 -13 12 -17 10 -7 9 -9 -3 -9
-9 0 -20 8 -23 17 -6 14 -9 12 -22 -11 -13 -26 -13 -30 3 -43 10 -8 13 -12 6
-9 -6 4 -14 2 -17 -2 -6 -10 -36 -9 -54 2 -7 4 -9 12 -5 19 4 7 9 4 14 -9 7
-17 8 -17 8 -1 1 10 5 16 9 13 7 -4 8 25 3 42 -1 1 -1 5 0 9 0 4 -8 10 -18 14
-24 10 32 10 65 1z m1442 -23 c0 -12 -5 -19 -11 -17 -6 2 -10 7 -10 11 1 4 1
14 1 23 0 8 5 12 10 9 6 -3 10 -15 10 -26z m-4772 -2 c4 -18 -75 -80 -89 -71
-19 11 -6 40 29 66 40 29 55 30 60 5z m1715 -26 c4 -4 1 -14 -5 -23 -12 -14
-18 -13 -65 9 -46 21 -52 27 -43 43 10 19 11 19 58 -1 26 -11 50 -24 55 -28z
m1544 23 c2 -6 -3 -11 -12 -11 -8 0 -15 7 -15 15 0 15 22 12 27 -4z m623 2 c0
-2 -9 -6 -20 -9 -11 -3 -18 -1 -14 4 5 9 34 13 34 5z m-893 -12 c-10 -10 36
-42 53 -37 10 3 9 1 -3 -7 -14 -9 -25 -7 -54 11 -32 20 -34 23 -17 30 25 10
29 10 21 3z m83 1 c0 -2 -9 -9 -20 -15 -16 -9 -18 -8 -14 5 5 13 34 22 34 10z
m-133 -11 c-3 -3 -12 -4 -19 -1 -8 3 -5 6 6 6 11 1 17 -2 13 -5z m443 -8 c0
-2 -7 -6 -15 -10 -8 -3 -15 -1 -15 4 0 6 7 10 15 10 8 0 15 -2 15 -4z m-250
-17 c0 -4 8 -10 18 -13 12 -3 11 -4 -4 -3 -11 1 -29 -5 -39 -13 -11 -9 -16
-10 -11 -2 5 8 0 12 -16 13 -19 1 -20 2 -4 6 15 4 16 7 5 13 -9 6 -2 8 19 8
18 -1 32 -5 32 -9z m830 -4 c0 -3 -15 -11 -32 -19 -18 -7 -85 -37 -148 -65
-63 -28 -106 -44 -95 -35 11 8 19 20 17 25 -1 6 2 8 8 4 15 -10 171 57 166 71
-3 7 2 10 12 7 10 -2 28 0 42 6 31 12 30 12 30 6z m-2124 -27 c28 -14 44 -28
44 -40 0 -23 -17 -23 -74 2 -49 21 -49 20 -40 44 8 21 18 20 70 -6z m1711 0
c-3 -8 -6 -5 -6 6 -1 11 2 17 5 13 3 -3 4 -12 1 -19z m-3697 -23 c7 -9 11 -17
9 -18 -2 -2 -23 -18 -46 -36 -41 -31 -63 -34 -63 -8 0 12 68 76 81 77 4 0 12
-7 19 -15z m3635 5 c3 -5 -3 -10 -15 -10 -14 0 -19 -4 -14 -12 4 -7 3 -9 -1
-5 -5 4 -10 14 -11 22 -3 17 31 21 41 5z m-309 -38 c-6 -5 -56 21 -56 29 0 5
13 0 29 -9 16 -9 28 -18 27 -20z m454 -4 c0 -6 -6 -5 -15 2 -8 7 -15 14 -15
16 0 2 7 1 15 -2 8 -4 15 -11 15 -16z m-1620 -18 c45 -23 52 -31 40 -50 -12
-20 -104 21 -108 49 -4 27 17 27 68 1z m1470 6 c0 -2 -7 -7 -16 -10 -8 -3 -12
-2 -9 4 6 10 25 14 25 6z m-123 -55 c11 -18 10 -18 -17 -8 -20 8 -25 14 -17
19 17 11 21 10 34 -11z m-3660 -24 c-3 -8 -22 -27 -42 -43 -32 -24 -38 -26
-51 -12 -14 14 -11 19 32 52 46 35 74 37 61 3z m2478 -1 c36 -15 51 -56 20
-56 -23 0 -85 33 -85 45 0 28 17 31 65 11z m1349 5 c3 -5 16 -7 29 -5 21 4 20
4 -2 -6 -14 -6 -27 -7 -30 -2 -3 5 -13 12 -21 15 -12 4 -12 6 2 6 9 1 19 -3
22 -8z m-19 -31 c-3 -5 -12 -10 -18 -10 -7 0 -6 4 3 10 19 12 23 12 15 0z
m-3955 -77 c0 -15 -11 -27 -58 -60 -22 -15 -24 -15 -40 2 -12 12 -13 19 -5 22
6 2 29 17 50 32 40 30 53 31 53 4z m-152 -115 c4 -19 -73 -72 -93 -64 -25 9
-18 23 28 55 44 32 60 34 65 9z m-487 -7 c-7 -5 -23 -6 -35 -4 -17 4 -18 3 -6
-6 8 -6 11 -11 5 -11 -5 0 -15 -12 -22 -26 -10 -22 -10 -25 3 -20 7 3 14 1 14
-4 0 -5 -11 -9 -25 -8 -14 1 -25 3 -25 4 0 13 14 33 20 29 4 -3 10 4 13 16 4
16 2 19 -16 14 -19 -5 -19 -4 3 9 26 16 96 23 71 7z m150 -30 c-11 -7 -11 -10
0 -14 9 -3 10 -6 2 -6 -18 -1 -27 20 -12 30 7 4 16 6 18 3 3 -3 -1 -9 -8 -13z
m-91 -12 c0 -5 -4 -9 -8 -9 -5 0 -9 7 -9 15 0 8 4 12 9 9 4 -3 8 -9 8 -15z
m202 -12 c43 -21 46 -24 28 -35 -16 -10 -18 -9 -14 3 5 11 -1 15 -21 15 -17 0
-24 4 -19 12 5 8 2 9 -10 5 -9 -4 -15 -3 -11 2 3 5 -1 12 -7 14 -7 3 -8 6 -3
6 6 0 31 -10 57 -22z m-442 -5 c0 -5 -6 -9 -12 -9 -7 0 -22 -4 -33 -7 -13 -5
-12 -2 5 8 29 17 40 20 40 8z m63 -5 c6 4 8 0 4 -10 -3 -9 -3 -16 1 -14 4 1 8
-2 10 -7 1 -6 -4 -11 -13 -12 -8 -1 -15 4 -15 12 0 8 -7 17 -16 21 -13 5 -13
7 -2 14 7 5 14 4 16 -1 2 -6 9 -7 15 -3z m114 -3 c-3 -3 -12 -4 -19 -1 -8 3
-5 6 6 6 11 1 17 -2 13 -5z m-133 -50 c3 -8 10 -13 15 -9 5 3 12 1 16 -4 3 -6
13 -8 23 -5 14 5 14 4 2 -4 -10 -8 -18 -8 -27 0 -9 7 -13 7 -13 -1 0 -6 -9 -2
-20 9 -22 22 -25 30 -11 30 5 0 12 -7 15 -16z m246 5 c0 -6 -9 -8 -21 -4 -15
5 -19 4 -15 -4 5 -7 -1 -11 -15 -11 -22 0 -22 0 -3 15 22 17 54 20 54 4z
m-500 -104 c7 -9 8 -15 2 -15 -5 0 -12 7 -16 15 -3 8 -4 15 -2 15 2 0 9 -7 16
-15z m989 -19 c-8 -8 -79 -35 -79 -30 0 6 60 33 74 34 5 0 7 -2 5 -4z m-973
-55 c-4 -6 -12 -11 -18 -11 -7 0 -7 4 1 13 6 8 9 16 7 19 -1 3 1 2 7 -2 5 -5
6 -13 3 -19z m4308 -8 c7 -18 -9 -34 -65 -67 -26 -16 -28 -15 -35 6 -3 12 -2
24 3 25 5 2 25 14 44 28 41 29 45 30 53 8z m1327 -4 c46 -20 61 -40 40 -53 -5
-4 -30 3 -55 14 -33 14 -46 25 -46 40 0 25 0 25 61 -1z m-4821 2 c0 -5 -10
-11 -22 -14 -22 -6 -22 -6 -4 8 23 17 26 18 26 6z m-661 -62 c19 -10 39 -15
44 -12 6 3 7 1 3 -5 -6 -11 -84 13 -126 39 -27 17 42 -3 79 -22z m5674 -26
c18 -9 27 -20 25 -31 -5 -19 -6 -19 -60 1 -46 16 -52 22 -44 42 6 18 27 14 79
-12z m-5222 -14 c-35 -16 -66 -27 -68 -25 -3 2 5 7 16 11 12 3 18 11 15 17 -4
6 -2 8 3 5 6 -4 26 0 44 8 63 27 54 14 -10 -16z m-328 4 c-7 -2 -19 -2 -25 0
-7 3 -2 5 12 5 14 0 19 -2 13 -5z m3880 -7 c8 -21 -83 -79 -100 -64 -20 16
-16 23 25 51 42 29 67 34 75 13z m-3883 -16 c8 -5 11 -10 5 -10 -5 0 -17 5
-25 10 -8 5 -10 10 -5 10 6 0 17 -5 25 -10z m5738 -47 c13 -5 17 -35 6 -46
-10 -10 -104 42 -104 57 0 23 12 25 49 10 20 -9 42 -18 49 -21z m-5589 -9 c9
-8 -45 -2 -64 6 -14 7 -8 8 20 3 22 -3 42 -7 44 -9z m3574 -28 c3 -8 -13 -26
-40 -45 -43 -30 -47 -31 -62 -16 -10 11 -12 19 -5 21 5 3 26 15 45 29 39 28
55 31 62 11z m2152 -28 c43 -21 56 -40 36 -53 -13 -7 -101 36 -101 50 0 11 9
25 16 25 2 0 24 -10 49 -22z m-2308 -79 c3 -17 -82 -73 -97 -64 -21 13 -9 35
33 59 44 27 61 28 64 5z m2487 0 c35 -16 43 -24 39 -40 -3 -11 -8 -19 -12 -17
-3 2 -27 11 -54 22 -44 17 -57 33 -40 49 10 11 20 9 67 -14z m169 -74 c47 -20
54 -29 39 -52 -6 -9 -21 -6 -60 12 -29 13 -52 26 -52 29 0 13 13 36 19 34 4
-2 28 -12 54 -23z m-2815 -27 c4 -19 -73 -72 -93 -64 -26 10 -16 30 28 58 45
29 60 31 65 6z m2961 -37 c15 -10 23 -39 15 -53 -5 -7 -64 17 -64 26 0 31 23
43 49 27z m-3119 -66 c0 -7 -19 -27 -42 -44 -31 -23 -45 -28 -55 -20 -21 18
-16 27 34 58 47 30 63 31 63 6z m-650 -20 c0 -8 -9 -16 -20 -16 -11 -1 -24 -3
-30 -4 -5 -1 -16 -3 -22 -4 -10 -1 -10 -3 1 -10 9 -6 10 -11 2 -15 -6 -4 -11
-2 -11 4 0 8 -17 10 -52 7 -50 -5 -52 -5 -23 8 16 7 40 11 52 9 15 -3 23 0 23
10 0 17 15 24 53 25 18 1 27 -4 27 -14z m55 -25 c-3 -5 -12 -10 -18 -10 -7 0
-6 4 3 10 19 12 23 12 15 0z m-57 -18 c2 -8 -3 -10 -15 -5 -16 6 -17 5 -3 -12
14 -17 14 -18 -7 -6 -26 13 -29 27 -10 34 17 7 30 3 35 -11z m130 2 c12 -4 22
-11 22 -16 0 -5 -5 -6 -12 -2 -7 4 -28 11 -48 15 -26 5 -29 7 -10 8 14 0 35
-2 48 -5z m-93 -14 c3 -5 -1 -10 -10 -10 -9 0 -13 5 -10 10 3 6 8 10 10 10 2
0 7 -4 10 -10z m462 -27 c2 -6 -18 -26 -46 -44 -52 -34 -57 -49 -15 -49 13 0
24 -5 24 -11 0 -5 4 -7 10 -4 5 3 18 2 27 -4 14 -8 10 -9 -17 -6 -19 2 -37 0
-40 -6 -4 -6 -18 -4 -36 6 -16 8 -23 15 -16 15 6 0 12 5 12 11 0 5 -6 7 -12 3
-10 -5 -10 -4 -1 6 9 10 10 17 1 27 -6 7 -9 15 -7 17 2 1 22 15 44 30 41 27
65 30 72 9z m-692 -3 c-3 -5 -12 -10 -18 -10 -7 0 -6 4 3 10 19 12 23 12 15 0z
m89 -11 c3 -2 -16 -5 -42 -6 -33 0 -40 1 -22 6 27 8 57 8 64 0z m381 -9 c40
-19 21 -22 -25 -3 -14 6 -32 13 -40 16 -11 4 -9 6 5 6 11 0 38 -8 60 -19z
m-325 -11 c0 -6 -4 -7 -10 -4 -5 3 -10 11 -10 16 0 6 5 7 10 4 6 -3 10 -11 10
-16z m40 -9 c-8 -5 -19 -10 -25 -10 -5 1 -2 5 8 11 9 6 14 16 11 22 -5 8 -2 7
7 -1 12 -11 12 -14 -1 -22z m211 -16 c-5 -16 -10 -21 -10 -12 -1 18 10 51 15
45 2 -1 -1 -16 -5 -33z m-391 22 c0 -9 -30 -14 -35 -6 -4 6 3 10 14 10 12 0
21 -2 21 -4z m450 -6 c0 -5 -5 -10 -11 -10 -5 0 -7 5 -4 10 3 6 8 10 11 10 2
0 4 -4 4 -10z m-430 -10 c0 -5 -5 -10 -11 -10 -5 0 -7 5 -4 10 3 6 8 10 11 10
2 0 4 -4 4 -10z m-26 -27 c3 -7 12 -13 20 -13 10 0 13 -6 10 -15 -4 -8 -10
-12 -15 -9 -5 3 -6 -3 -2 -12 5 -14 9 -12 21 11 10 21 11 29 2 35 -8 5 -7 9 6
14 9 3 18 5 19 4 1 -2 -4 -27 -13 -55 -9 -35 -20 -53 -31 -54 -9 -1 -5 -4 9
-9 l25 -8 -25 -1 c-15 -1 -30 7 -37 19 -11 16 -10 18 2 14 11 -5 12 0 6 23 -5
15 -13 27 -19 26 -5 -1 -12 8 -14 22 -4 18 -1 23 13 22 10 -1 21 -7 23 -14z
m162 -9 c-4 -9 -9 -14 -13 -11 -3 4 -13 1 -21 -6 -13 -11 -14 -9 -2 10 8 12
18 19 22 17 4 -3 8 0 8 7 0 7 3 10 6 6 4 -3 4 -14 0 -23z m-432 -10 c5 -14 4
-15 -9 -4 -10 8 -15 9 -15 2 0 -6 -7 -9 -16 -5 -13 5 -13 7 -2 14 20 13 35 11
42 -7z m696 -28 c0 -3 -4 -8 -10 -11 -5 -3 -10 -1 -10 4 0 6 5 11 10 11 6 0
10 -2 10 -4z m-208 -18 c9 -7 18 -24 20 -38 2 -14 7 -28 12 -31 5 -4 2 -17 -6
-28 l-16 -22 -6 26 c-4 16 -13 25 -26 25 -11 0 -20 4 -20 9 0 4 -12 7 -26 5
-16 -1 -24 2 -21 9 2 7 18 13 35 15 18 2 30 7 27 12 -3 5 -13 6 -23 3 -15 -6
-15 -5 -3 10 16 20 31 21 53 5z m-545 -34 c-3 -3 -12 -4 -19 -1 -8 3 -5 6 6 6
11 1 17 -2 13 -5z m650 -30 c-3 -3 -12 -4 -19 -1 -8 3 -5 6 6 6 11 1 17 -2 13
-5z m-130 -51 c-3 -10 -5 -4 -5 12 0 17 2 24 5 18 2 -7 2 -21 0 -30z m139 8
c-4 -6 -12 -11 -17 -11 -6 0 -7 5 -4 10 3 6 0 10 -7 10 -9 0 -9 3 2 10 17 11
36 -3 26 -19z m669 10 c5 -9 -103 -66 -111 -58 -3 2 18 14 47 25 28 12 48 26
44 32 -3 5 -2 10 4 10 5 0 12 -4 16 -9z m1965 -13 c11 -27 78 -239 144 -458
26 -85 56 -180 65 -211 l18 -55 -37 -107 c-44 -126 -37 -113 -202 -334 -70
-95 -128 -180 -128 -189 0 -9 31 -136 70 -283 38 -146 74 -304 79 -351 5 -47
19 -159 31 -250 25 -191 24 -322 -4 -364 -25 -39 -55 -47 -127 -35 -77 12
-162 3 -464 -51 -252 -46 -327 -50 -386 -20 -47 25 -92 83 -115 152 -13 41
-15 73 -10 181 23 449 54 709 110 897 l25 85 -157 160 c-144 147 -161 168
-210 262 -28 56 -52 112 -52 126 0 23 97 597 121 715 9 44 14 52 28 47 10 -3
38 -11 62 -18 l44 -13 12 -239 c7 -132 15 -300 19 -373 l6 -133 136 -115 c74
-63 138 -114 142 -114 3 0 23 18 43 39 44 46 110 81 155 81 29 0 32 -2 26 -24
-5 -20 0 -25 27 -35 43 -15 97 -4 105 21 5 18 11 19 57 12 29 -4 59 -8 68 -8
8 -1 63 51 122 114 121 131 116 114 97 297 -9 89 -39 464 -43 538 -2 26 4 33
43 52 57 28 68 28 80 1z m-2973 -25 c2 -6 -5 -13 -15 -15 -15 -4 -18 -1 -14
14 5 19 23 20 29 1z m353 3 c0 -2 -7 -9 -15 -16 -13 -11 -14 -10 -9 4 5 14 24
23 24 12z m-310 -25 c0 -5 -9 -11 -20 -14 -11 -3 -20 -9 -19 -14 4 -25 -4 -33
-32 -33 -27 0 -30 2 -19 15 7 8 20 15 29 15 14 0 14 2 1 10 -12 8 -11 10 8 10
12 0 22 5 22 10 0 6 7 10 15 10 8 0 15 -4 15 -9z m-228 -13 c6 -17 -3 -58 -12
-58 -5 0 -7 12 -6 28 2 15 -2 30 -8 34 -7 5 -5 8 6 8 9 0 18 -5 20 -12z m856
3 c10 -6 9 -10 -7 -14 -21 -5 -36 5 -24 17 8 8 15 7 31 -3z m-310 -14 c8 -10
6 -13 -7 -13 -10 0 -18 6 -18 13 0 7 4 13 7 13 4 0 12 -6 18 -13z m-508 -1 c0
-3 -4 -8 -10 -11 -5 -3 -10 -1 -10 4 0 6 5 11 10 11 6 0 10 -2 10 -4z m925
-31 c-91 -40 -85 -38 -85 -25 0 6 3 9 8 8 8 -1 78 27 102 42 8 5 24 9 35 9 11
1 -16 -15 -60 -34z m-815 -24 c0 -5 -6 -14 -14 -20 -12 -10 -13 -8 -9 8 5 21
23 30 23 12z m-235 -11 c3 -5 1 -10 -4 -10 -6 0 -11 5 -11 10 0 6 2 10 4 10 3
0 8 -4 11 -10z m-35 -15 c14 -8 21 -14 15 -14 -5 0 -21 6 -35 14 -14 8 -20 14
-15 14 6 0 21 -6 35 -14z m304 -16 c20 3 25 0 20 -13 -4 -9 12 -17 57 -26 l62
-13 -58 -15 c-79 -20 -105 -8 -102 47 1 22 4 36 8 30 3 -6 9 -10 13 -10z
m-244 -4 c0 -9 -6 -12 -15 -9 -8 4 -15 10 -15 15 0 5 7 9 15 9 8 0 15 -7 15
-15z m35 -15 c-3 -5 -12 -10 -18 -10 -7 0 -6 4 3 10 19 12 23 12 15 0z m785
-10 c-8 -5 -19 -10 -25 -10 -5 0 -3 5 5 10 8 5 20 10 25 10 6 0 3 -5 -5 -10z
m-165 -20 c8 0 16 -4 19 -9 3 -5 -4 -8 -17 -7 -16 1 -23 8 -24 21 -1 11 1 14
4 8 3 -7 11 -13 18 -13z m-509 -25 c17 -16 14 -18 -10 -9 -9 3 -16 10 -16 15
0 13 9 11 26 -6z m573 1 c-8 -8 -79 -35 -79 -30 0 6 60 33 74 34 5 0 7 -2 5
-4z m-509 -26 c0 -13 -11 -13 -30 0 -12 8 -11 10 8 10 12 0 22 -4 22 -10z
m355 -10 c3 -6 -1 -7 -9 -4 -18 7 -21 14 -7 14 6 0 13 -4 16 -10z m-280 -24
c9 -9 13 -16 9 -16 -16 0 -74 24 -74 31 0 13 48 2 65 -15z m145 4 c0 -5 -4
-10 -10 -10 -5 0 -10 5 -10 10 0 6 5 10 10 10 6 0 10 -4 10 -10z m-90 -31 c0
-14 -17 -10 -23 5 -4 10 -1 13 9 9 7 -3 14 -9 14 -14z m155 -14 c-50 -21 -83
-26 -40 -6 22 11 47 19 55 19 8 0 2 -5 -15 -13z m4322 -52 l78 -37 145 -291
c131 -262 147 -290 168 -287 12 2 82 30 155 62 l132 58 148 8 c138 6 149 8
157 28 7 17 3 26 -21 47 -27 24 -31 34 -36 102 -7 92 -1 117 39 162 35 40 76
65 109 65 27 0 120 -61 148 -96 32 -41 34 -62 15 -150 l-19 -84 -50 -19 c-35
-13 -51 -25 -53 -39 -3 -20 0 -21 65 -16 86 7 148 -17 185 -73 183 -275 308
-476 308 -495 0 -13 -10 -81 -22 -152 l-23 -129 -77 -54 -78 -55 0 -166 c0
-92 -3 -190 -6 -218 l-6 -51 -300 -6 c-242 -4 -317 -3 -386 9 -69 12 -87 13
-93 2 -26 -42 -23 77 9 387 15 145 17 203 9 400 -5 127 -10 231 -11 232 -1 1
-94 -13 -206 -32 l-205 -34 -90 90 -91 89 -27 108 c-15 59 -52 199 -82 312
-31 113 -56 219 -56 235 -1 17 -8 40 -15 52 -16 25 -19 73 -5 73 5 0 44 -17
88 -37z m-6937 -103 c25 -7 36 -7 42 3 11 18 59 -11 78 -48 8 -17 25 -40 36
-51 12 -12 30 -35 40 -53 10 -17 22 -31 26 -31 4 0 8 -4 8 -9 0 -5 17 -36 38
-68 79 -120 189 -289 210 -323 12 -19 26 -41 30 -48 7 -11 36 -7 148 22 76 20
166 47 199 61 33 13 70 25 83 25 18 0 22 6 22 30 0 16 -3 29 -7 29 -28 -5 -53
3 -53 16 0 9 -11 37 -25 64 -38 73 -42 111 -13 138 37 35 139 57 232 49 44 -4
83 -9 88 -12 4 -3 8 -46 8 -96 0 -88 -1 -91 -31 -119 -17 -16 -35 -29 -40 -29
-5 0 -9 -8 -9 -19 0 -16 6 -18 44 -14 66 8 109 -3 167 -43 28 -20 88 -57 132
-83 77 -44 85 -52 172 -174 50 -70 98 -134 106 -141 15 -15 24 -14 384 39 123
18 181 23 183 16 5 -14 37 -14 63 -1 14 8 34 4 84 -17 36 -16 65 -31 65 -34 0
-14 -145 -72 -181 -72 -25 0 -39 -4 -39 -12 0 -8 -121 -53 -307 -115 -305
-101 -306 -102 -345 -87 -21 9 -38 11 -38 6 0 -16 39 -160 67 -244 25 -79 46
-128 64 -149 142 -170 144 -263 8 -332 -83 -42 -161 -55 -264 -44 -220 23
-507 5 -655 -41 -65 -20 -172 -83 -205 -119 -30 -33 -62 -26 -76 17 -13 41 -6
351 11 488 5 41 19 174 30 296 11 121 27 249 35 282 9 38 11 64 5 67 -6 4 -88
14 -183 25 -94 10 -175 21 -180 25 -4 3 -37 101 -72 216 -59 187 -130 413
-172 546 -12 39 -24 55 -69 85 -29 21 -56 44 -59 52 -14 36 43 52 115 31z
m4425 -3272 c3 -7 11 -130 19 -273 l15 -260 -34 -28 c-35 -29 -48 -78 -25 -92
5 -3 48 -3 94 1 l83 7 6 61 c3 33 29 181 57 329 l53 267 148 0 147 0 6 -27
c14 -66 86 -571 86 -601 l0 -33 93 3 92 3 3 31 c3 30 -13 49 -65 79 -3 1 24
385 33 473 l7 64 166 -7 c91 -3 218 -10 281 -16 63 -5 189 -14 280 -19 99 -6
215 -20 288 -35 186 -38 385 -47 882 -44 l445 4 9 -57 c11 -68 10 -68 159 -68
l107 0 0 60 0 60 65 0 64 0 3 -72 3 -73 125 0 125 0 3 63 3 63 67 -6 c412 -39
697 -109 817 -201 100 -76 86 -183 -42 -323 -130 -144 -286 -239 -491 -300
-248 -74 -666 -99 -1092 -66 -264 21 -520 44 -550 50 -61 12 -402 45 -585 57
-279 18 -2412 18 -2640 0 -293 -22 -643 -33 -1430 -42 -429 -5 -913 -16 -1075
-24 -836 -43 -1014 -42 -1250 8 -282 60 -505 177 -566 299 -23 43 -28 69 -32
153 -4 87 -1 111 18 170 54 162 229 263 513 295 159 18 445 16 552 -4 132 -25
185 -39 185 -51 0 -6 -7 -72 -15 -146 -9 -74 -18 -172 -21 -216 l-5 -82 68
-45 67 -45 43 29 c24 17 43 32 43 35 0 3 -15 24 -34 47 l-34 42 59 160 c32 88
59 166 59 173 0 9 9 12 28 8 75 -14 224 -36 280 -40 35 -2 65 -6 67 -8 1 -1 8
-82 15 -178 6 -96 13 -176 13 -176 1 -1 34 -18 73 -37 l71 -36 39 40 39 40
-42 39 -41 39 20 133 c12 73 24 136 27 140 3 3 107 14 231 23 420 31 783 71
1165 130 296 45 590 61 1188 63 286 2 369 -1 372 -10z"/>
<path d="M5486 7421 c-15 -17 -15 -19 -1 -25 9 -3 13 -2 10 4 -3 6 1 10 9 10
9 0 16 7 16 15 0 20 -13 19 -34 -4z"/>
<path d="M5441 7414 c0 -11 3 -14 6 -6 3 7 2 16 -1 19 -3 4 -6 -2 -5 -13z"/>
<path d="M5480 7365 c0 -5 5 -17 10 -25 5 -8 10 -10 10 -5 0 6 -5 17 -10 25
-5 8 -10 11 -10 5z"/>
<path d="M5360 7242 c-8 -9 -13 -16 -11 -15 2 2 9 -1 15 -6 7 -6 11 -1 12 15
1 13 1 24 0 23 0 0 -8 -8 -16 -17z"/>
<path d="M5330 7150 c0 -5 5 -10 11 -10 5 0 7 5 4 10 -3 6 -8 10 -11 10 -2 0
-4 -4 -4 -10z"/>
<path d="M6156 7382 c-3 -5 1 -9 9 -9 8 0 15 4 15 9 0 4 -4 8 -9 8 -6 0 -12
-4 -15 -8z"/>
<path d="M6250 7330 c0 -5 5 -10 10 -10 6 0 10 5 10 10 0 6 -4 10 -10 10 -5 0
-10 -4 -10 -10z"/>
<path d="M6130 7220 c0 -5 5 -10 11 -10 5 0 7 5 4 10 -3 6 -8 10 -11 10 -2 0
-4 -4 -4 -10z"/>
<path d="M6480 7334 c0 -8 5 -12 10 -9 6 3 10 10 10 16 0 5 -4 9 -10 9 -5 0
-10 -7 -10 -16z"/>
<path d="M6170 7139 c0 -5 5 -7 10 -4 6 3 10 8 10 11 0 2 -4 4 -10 4 -5 0 -10
-5 -10 -11z"/>
<path d="M6183 7025 c0 -8 4 -12 9 -9 4 3 8 9 8 15 0 5 -4 9 -8 9 -5 0 -9 -7
-9 -15z"/>
<path d="M6067 6929 c7 -7 15 -10 18 -7 3 3 -2 9 -12 12 -14 6 -15 5 -6 -5z"/>
<path d="M3603 5045 c0 -16 24 -20 45 -6 11 7 10 9 -3 14 -9 4 -13 3 -10 -3 8
-13 -8 -13 -21 0 -7 7 -11 6 -11 -5z"/>
<path d="M8990 1100 c0 -34 -39 -100 -58 -100 -24 0 -42 19 -42 44 0 15 -3 17
-12 8 -7 -7 -12 -42 -12 -83 -1 -66 1 -73 25 -91 32 -24 55 -15 90 33 17 24
23 50 27 120 3 63 1 89 -7 89 -6 0 -11 -9 -11 -20z"/>
<path d="M9232 1048 c-29 -120 -23 -169 22 -190 32 -14 72 10 91 55 17 43 30
157 17 157 -5 0 -12 -9 -15 -20 -6 -24 -52 -37 -72 -20 -8 7 -15 23 -15 36 0
39 -17 27 -28 -18z"/>
</g>
</svg>
